<?xml version="1.0" encoding="UTF-8" standalone="no"?>
<!-- Created with Inkscape (http://www.inkscape.org/) -->

<svg
   xmlns:dc="http://purl.org/dc/elements/1.1/"
   xmlns:cc="http://creativecommons.org/ns#"
   xmlns:rdf="http://www.w3.org/1999/02/22-rdf-syntax-ns#"
   xmlns:svg="http://www.w3.org/2000/svg"
   xmlns="http://www.w3.org/2000/svg"
   xmlns:sodipodi="http://sodipodi.sourceforge.net/DTD/sodipodi-0.dtd"
   xmlns:inkscape="http://www.inkscape.org/namespaces/inkscape"
   width="2145.3408"
   height="1710.6716"
   id="svg2"
   version="1.1"
   inkscape:version="0.92.2 5c3e80d, 2017-08-06"
   sodipodi:docname="iggseparate.svg"
   viewBox="0 0 2011.257 1603.7546">
  <defs
     id="defs4" />
  <sodipodi:namedview
     id="base"
     pagecolor="#ffffff"
     bordercolor="#666666"
     borderopacity="1.0"
     inkscape:pageopacity="0.0"
     inkscape:pageshadow="2"
     inkscape:zoom="0.35"
     inkscape:cx="226.11854"
     inkscape:cy="798.51216"
     inkscape:document-units="px"
     inkscape:current-layer="layer1"
     showgrid="false"
     fit-margin-top="0"
     fit-margin-left="0"
     fit-margin-right="0"
     fit-margin-bottom="0"
     inkscape:window-width="1920"
     inkscape:window-height="1021"
     inkscape:window-x="0"
     inkscape:window-y="0"
     inkscape:window-maximized="1"
     inkscape:pagecheckerboard="true" />
  <metadata
     id="metadata7">
    <rdf:RDF>
      <cc:Work
         rdf:about="">
        <dc:format>image/svg+xml</dc:format>
        <dc:type
           rdf:resource="http://purl.org/dc/dcmitype/StillImage" />
        <dc:title></dc:title>
      </cc:Work>
    </rdf:RDF>
  </metadata>
  <g
     inkscape:groupmode="layer"
     id="layer4"
     inkscape:label="back"
     style="display:none">
    <path
       inkscape:connector-curvature="0"
       id="path3078-8"
       d="M 0,801.87724 V -1.6132812e-4 H 1005.6285 2011.257 V 801.87724 1603.7546 H 1005.6285 0 Z m 1515.6303,791.32136 c 24.3438,-4.3712 45.7924,-11.5537 61.2502,-20.5108 10.8771,-6.3029 26.6142,-22.6151 32.1341,-33.3084 6.6971,-12.9736 8.9537,-21.8952 9.0111,-35.6251 0.058,-13.7685 -1.7423,-22.1718 -7.3623,-34.3751 -19.8283,-43.0555 -71.8039,-61.8613 -183.1584,-66.2703 -40.9053,-1.6196 -50.2099,-3.6302 -56.8028,-12.2739 -3.7192,-4.876 -4.3497,-13.7269 -1.3863,-19.4576 2.7429,-5.304 10.0251,-11.0969 15.9851,-12.7159 6.0884,-1.6538 19.3339,-0.9601 37.204,1.9483 45.9038,7.4711 87.6052,0.7806 116.9863,-18.7688 12.8953,-8.5803 29.5212,-26.0204 36.3905,-38.1724 18.4202,-32.5864 20.2284,-74.6725 4.7444,-110.4258 -3.9472,-9.1142 -4.1809,-10.2616 -2.3629,-11.6029 4.5966,-3.3913 32.6298,-7.0743 48.6174,-6.3875 l 8.75,0.3759 v -19.375 -19.3751 l -11.572,0.2387 c -20.3358,0.4193 -42.9793,5.6711 -61.3696,14.2335 l -10.4413,4.8614 -8.4665,-5.0298 c -11.9347,-7.0903 -27.3192,-13.3387 -41.901,-17.0183 -15.6157,-3.9403 -48.0181,-5.3783 -66.0463,-2.931 -51.8189,7.0343 -91.0142,39.0067 -103.5442,84.4632 -2.297,8.3332 -2.7518,13.3544 -2.824,31.1826 -0.075,18.5146 0.2772,22.5039 2.7367,30.9895 5.1592,17.7994 15.0757,34.1385 28.9586,47.7138 3.4891,3.4116 6.3327,6.7866 6.3192,7.5 -0.014,0.7134 -4.7393,4.2559 -10.5019,7.8723 -21.3786,13.4164 -31.9244,28.2487 -32.9325,46.3182 -0.4363,7.8209 -0.013,10.9949 2.2814,17.0751 2.9369,7.7855 11.2904,17.8585 19.376,23.3644 2.3564,1.6045 4.2882,3.3154 4.2929,3.8019 0,0.4865 -4.664,5.549 -10.3749,11.2501 -18.9209,18.888 -25.8204,32.9967 -26.8168,54.8365 -0.6945,15.2232 0.9921,22.9056 7.9441,36.185 18.9215,36.143 58.255,54.4836 132.3815,61.7275 11.3905,1.1132 51.7312,-0.3806 62.5002,-2.3142 z m -67.5002,-39.4899 c -46.3617,-2.8336 -82.3398,-17.8992 -95.4155,-39.9544 -2.9161,-4.9186 -3.3326,-6.9594 -3.3174,-16.25 0.015,-9.0843 0.5038,-11.5514 3.3703,-17.0132 4.9206,-9.3759 14.844,-19.5674 26.7948,-27.5193 l 10.5377,-7.0114 14.6399,0.8372 c 60.6737,3.4701 108.5091,9.2816 130.8905,15.9022 18.0684,5.3448 31.6823,14.3946 37.5044,24.9311 7.1674,12.9714 4.0697,31.1952 -7.1384,41.9959 -9.8921,9.5321 -27.2555,17.0468 -48.4911,20.9862 -8.4369,1.5651 -51.0969,4.8812 -53.7502,4.1781 -0.3437,-0.091 -7.375,-0.5781 -15.625,-1.0824 z m -8.5114,-232.5717 c -26.9314,-3.9381 -51.0147,-20.3962 -62.1629,-42.4805 -10.124,-20.0554 -9.9786,-48.1904 0.3508,-67.9117 5.9279,-11.318 20.5743,-25.4958 32.1983,-31.1683 16.5305,-8.0669 26.2606,-9.965 51.2502,-9.9978 18.6013,-0.024 23.3343,0.3741 31.6257,2.6629 29.221,8.0666 50.9087,29.6083 56.5336,56.1533 3.5929,16.9559 1.722,31.0603 -6.2898,47.4176 -11.746,23.9813 -33.4986,39.77 -61.8694,44.9066 -10.3246,1.8693 -30.3376,2.0702 -41.6365,0.4179 z m 450.2342,271.4106 c 28.3744,-5.2489 53.3801,-15.2327 68.3421,-27.2862 19.9798,-16.0961 30.6346,-37.6334 30.7406,-62.1381 0.1461,-33.7922 -19.1228,-61.5333 -53.434,-76.9276 -30.6046,-13.7313 -69.0126,-19.9446 -146.4582,-23.6923 -32.0584,-1.5514 -37.1311,-2.503 -43.8083,-8.2183 -11.2979,-9.6708 -9.29,-24.5983 4.3869,-32.6135 7.8843,-4.6205 19.0489,-5.1141 39.1343,-1.7305 41.7016,7.0252 78.8584,3.5888 107.1996,-9.9144 12.7863,-6.092 19.4145,-10.61 29.7516,-20.2799 20.8798,-19.5319 32.4395,-43.2865 35.7017,-73.3655 2.3977,-22.1058 -1.8599,-47.4636 -11.0083,-65.567 -1.6855,-3.3352 -2.7742,-6.8203 -2.4195,-7.7447 1.5318,-3.9917 31.338,-8.6753 49.7221,-7.8131 l 7.9285,0.3718 v -19.375 -19.3751 l -11.0312,0.2621 c -20.8748,0.4961 -44.795,6.1807 -62.8215,14.9295 l -8.8526,4.2964 -9.2474,-5.7015 c -10.7943,-6.6551 -24.5264,-12.1879 -41.1728,-16.589 -15.8915,-4.2015 -51.886,-5.4201 -69.5448,-2.3545 -33.3063,5.7821 -59.8122,20.2668 -78.6699,42.9907 -7.7472,9.3356 -17.8501,29.0889 -21.0808,41.2176 -2.9299,10.9996 -4.2768,29.7997 -3.0711,42.8668 2.4407,26.4499 10.465,43.8948 29.2206,63.5261 5.1676,5.4089 9.3795,10.3341 9.3598,10.9453 -0.02,0.6111 -4.33,3.6424 -9.5785,6.7361 -12.463,7.3464 -25.1327,19.8036 -29.7595,29.2605 -4.6694,9.5436 -5.7834,24.6087 -2.5415,34.369 2.657,7.9994 9.7349,16.901 17.9866,22.6208 3.4714,2.4062 6.336,4.6562 6.366,5 0.03,0.3437 -5.1469,5.9841 -11.504,12.534 -19.2701,19.8547 -26.5144,35.6273 -26.3938,57.4662 0.11,20.0161 7.5453,36.7445 23.5854,53.0679 22.5748,22.9736 56.9979,35.1671 116.2504,41.179 13.316,1.3511 52.9312,-0.4026 66.7215,-2.9536 z m -71.7607,-38.9035 c -47.0215,-2.8314 -85.92,-20.1973 -95.5899,-42.6754 -3.6509,-8.4868 -3.1597,-21.3377 1.1535,-30.1792 6.6381,-13.6077 31.6905,-34.5481 41.3037,-34.5245 7.6909,0.019 57.4114,3.6698 76.9219,5.6484 53.8647,5.4623 79.2326,12.6474 94.7614,26.84 8.2505,7.5404 11.2246,14.0584 11.1989,24.5433 -0.051,20.86 -17.3596,36.9748 -48.0862,44.7692 -20.4511,5.1879 -52.1667,7.3542 -81.6633,5.5782 z m -9.9609,-232.908 c -19.9005,-3.9027 -33.5957,-10.9307 -46.2673,-23.7429 -9.565,-9.6714 -16.588,-22.1358 -19.4329,-34.4896 -2.0381,-8.8507 -2.0294,-26.2089 0.017,-35.0001 6.3639,-27.3309 29.6268,-48.7322 60.6826,-55.8267 13.9534,-3.1875 44.8688,-3.192 58.4838,-0.01 28.1925,6.5922 50.3473,26.7748 57.8262,52.6788 2.7723,9.6021 2.8116,27.4169 0.084,38.0153 -6.7364,26.1749 -29.4939,48.188 -58.2892,56.3828 -12.1531,3.4586 -40.2501,4.5118 -53.1049,1.9908 z M 635.23416,1469.3706 c 1.86934,-7.3963 16.30042,-119.3281 15.61495,-121.1144 -0.41126,-1.0717 -3.18658,-2.1586 -6.71156,-2.6284 -3.30568,-0.4405 -11.3541,-2.1071 -17.88537,-3.7036 -6.53128,-1.5965 -12.25826,-2.5411 -12.72663,-2.099 -1.53427,1.4479 -15.15699,122.7955 -13.92372,124.0287 1.47666,1.4767 30.41051,9.8544 32.85604,9.5134 1.00688,-0.1403 2.25621,-1.9388 2.77629,-3.9967 z m 571.64504,-168.7419 v -163.7505 h -21.875 -21.8751 l -0.3215,162.5005 c -0.1768,89.3753 -0.049,163.217 0.2847,164.0926 0.4657,1.2234 5.6077,1.5129 22.1965,1.25 l 21.5904,-0.3421 z m -1014.23304,9.2733 c 1.31099,-56.1886 1.50426,-84.4904 0.58712,-85.9744 -0.48409,-0.7833 -2.11259,-1.4428 -3.6189,-1.4656 -1.5063,-0.023 -7.80125,-2.0259 -13.98877,-4.4514 -6.18752,-2.4254 -12.24008,-4.7238 -13.45014,-5.1076 -2.08166,-0.6602 -2.18258,2.4219 -1.875,57.264 l 0.32509,57.9618 14.37505,7.7916 c 7.90627,4.2854 14.93755,7.6147 15.62505,7.3983 0.7658,-0.241 1.54846,-13.1853 2.0205,-33.4167 z m 494.54328,6.9618 c 40.05461,-7.5983 72.53354,-31.7104 88.95748,-66.0412 14.21664,-29.7171 15.91948,-57.7705 5.47479,-90.1943 -19.05961,-59.1674 -76.9586,-100.5841 -136.61947,-97.7277 -29.07057,1.3918 -55.13571,11.8007 -77.25852,30.8525 -37.11676,31.9644 -49.62498,82.2367 -32.58631,130.969 16.69015,47.7355 60.68345,84.6275 111.09484,93.1622 7.75846,1.3135 31.79157,0.7143 40.93719,-1.0205 z m 287.6804,-63.8987 c 2.1853,-10.0587 3.66935,-18.5925 3.2979,-18.9639 -1.49419,-1.4942 -160.10751,-27.366 -161.42225,-26.33 -0.76029,0.5991 -1.69668,5.1659 -2.08087,10.1483 -0.38419,4.9824 -1.6675,12.8911 -2.85182,17.5749 -1.25147,4.9493 -1.68876,8.9752 -1.04413,9.6127 1.33422,1.3195 147.66264,26.0045 154.99379,26.1468 l 5.13413,0.1 3.97325,-18.2886 z m -749.19418,-57.3748 c 27.22517,-6.9909 49.42112,-31.5223 59.34305,-65.5871 3.92757,-13.4844 4.80141,-40.253 1.88405,-57.714 -7.89142,-47.2318 -33.65989,-86.34016 -67.505,-102.45106 -31.99906,-15.2322 -60.08873,-10.4043 -82.52228,14.1835 -18.09743,19.83526 -28.1251,47.27386 -28.1251,76.95836 0,46.2475 21.32727,93.5162 52.90343,117.2524 21.13721,15.8891 44.77928,22.2991 64.02185,17.3579 z m 274.55528,-25.587 c 0.46981,-6.5313 1.42879,-14.4063 2.13106,-17.5 0.9503,-4.1865 0.89169,-5.9773 -0.2292,-7.0025 -0.82833,-0.7576 -20.63113,-5.7373 -44.00621,-11.066 -23.37508,-5.3287 -64.29396,-15.1162 -90.93084,-21.7499 -26.63689,-6.6338 -48.99634,-11.8729 -49.68767,-11.6425 -0.69134,0.2305 -1.27766,3.8878 -1.30293,8.1274 -0.0252,4.2396 -0.81875,11.6459 -1.7633,16.4584 -0.94454,4.8125 -1.32806,9.1614 -0.85227,9.6643 1.35084,1.4277 65.89696,18.6229 118.28692,31.5118 26.12509,6.4273 50.87518,12.5432 55.00019,13.5908 12.52826,3.1819 12.36893,3.3059 13.35425,-10.3918 z M 81.53962,1046.8164 c 0.51339,-7.6417 0.42823,-14.0959 -0.19419,-14.7184 -1.8628,-1.8628 -74.09691,-25.8373 -75.40703,-25.0276 -0.68408,0.4228 -0.92021,3.308 -0.53463,6.5324 0.37984,3.1763 1.08517,9.0055 1.56742,12.9539 0.48225,3.9484 1.50165,7.6825 2.26533,8.2981 1.03963,0.838 42.58459,16.6528 67.01375,25.51 3.77901,1.3702 4.3927,-0.2018 5.28935,-13.5484 z m 1125.33958,-13.6885 v -26.2501 h -21.875 -21.8751 l -0.3399,24.9648 c -0.1869,13.7307 -0.059,25.6972 0.2847,26.5923 0.4867,1.2683 5.3885,1.5519 22.2149,1.2852 l 21.5904,-0.3421 z m -510.08739,7.0135 c 0.37781,-0.6113 4.92182,-27.1895 10.09779,-59.06256 5.17596,-31.8732 13.36654,-80.9567 18.20127,-109.0746 5.31215,-30.8941 8.33813,-51.5755 7.64735,-52.2663 -0.62869,-0.6287 -5.2983,-1.6973 -10.37691,-2.3748 -5.0786,-0.6774 -13.91366,-2.4028 -19.63347,-3.8342 -6.35884,-1.5913 -10.84816,-2.154 -11.55401,-1.4481 -2.25036,2.2504 -37.17549,217.25286 -35.85125,220.70376 0.40498,1.0554 5.25404,2.1985 13.59218,3.2042 7.12944,0.8599 15.77512,2.3458 19.21263,3.302 7.86484,2.1878 7.83957,2.1853 8.66442,0.8506 z M 216.78997,936.39144 c 0.37771,-0.6111 3.25209,-19.2781 6.38752,-41.4821 5.98227,-42.3644 15.39765,-100.5388 21.71739,-134.1843 2.05605,-10.9462 3.496,-20.2942 3.19987,-20.7733 -0.29613,-0.4792 -4.34778,-1.2516 -9.00368,-1.7164 -4.65589,-0.4649 -12.25207,-2.1251 -16.88037,-3.6894 -4.62832,-1.5643 -8.92082,-2.5235 -9.53891,-2.1315 -3.7303,2.3654 -33.44121,193.021 -31.05043,199.2513 0.64013,1.6682 2.627,2.111 9.90258,2.2069 5.00597,0.066 11.91427,0.8429 15.35178,1.7265 7.99858,2.056 9.07985,2.1424 9.91425,0.7923 z m 553.83771,-148.1148 c 27.84997,-6.073 52.79137,-19.5516 72.60642,-39.2374 17.78537,-17.6694 30.07655,-38.7618 36.43823,-62.5301 2.8128,-10.5091 3.24725,-14.6409 3.24725,-30.8823 0,-16.2018 -0.43757,-20.3842 -3.21968,-30.7737 -17.69465,-66.079 -81.22429,-107.9473 -146.72111,-96.6944 -31.14771,5.3514 -59.76162,20.6176 -81.25962,43.354 -15.5606,16.457 -25.71328,34.1149 -32.55112,56.614 -3.18211,10.4704 -3.41906,12.8093 -3.41906,33.7501 0,20.9867 0.2304,23.2483 3.42559,33.6256 15.81887,51.3759 55.31907,86.3881 106.55888,94.4516 9.97725,1.5702 34.14197,0.6673 44.89422,-1.6774 z m 297.80052,-56.0871 c 1.7463,-2.2172 6.997,-38.5306 5.7409,-39.7027 -0.5722,-0.5339 -27.1967,-5.7812 -59.1656,-11.6606 -89.68466,-16.494 -101.21206,-18.4956 -102.37579,-17.7764 -0.5953,0.3679 -1.45017,3.9108 -1.8997,7.873 -0.44954,3.9622 -1.99842,12.9865 -3.44195,20.0541 -1.44353,7.0675 -2.4071,13.0426 -2.14126,13.278 0.26585,0.2355 27.48344,5.2717 60.48356,11.1916 33.00011,5.9199 68.43774,12.3998 78.75024,14.3997 22.2816,4.3211 22.477,4.3401 24.0496,2.3433 z m -792.68969,-23.4662 c 32.0656,-8.2004 61.57059,-33.8558 80.25984,-69.7881 12.41273,-23.8649 17.1485,-42.2739 17.09032,-66.4337 -0.0954,-39.6029 -16.86896,-72.9772 -43.43169,-86.4159 -12.03241,-6.0874 -20.80869,-7.7366 -37.15596,-6.9822 -16.31591,0.753 -25.26114,3.2254 -39.78017,10.995 -38.15723,20.4191 -68.43239,66.5116 -74.09396,112.8047 -2.96969,24.2823 2.14971,51.655 13.46085,71.9733 5.52982,9.9332 18.62009,23.2451 27.52627,27.9923 15.45498,8.2379 37.72261,10.5607 56.1245,5.8546 z m 312.46974,-68.2426 c 0.79359,-5.5803 2.43272,-14.185 3.6425,-19.1217 1.20979,-4.9366 1.88851,-9.2868 1.50828,-9.6671 -1.25402,-1.254 -104.78543,-14.8796 -165.73524,-21.8122 -28.03765,-3.189 -26.73753,-3.5951 -28.13866,8.7893 -0.45889,4.0559 -1.90311,11.2182 -3.20939,15.9161 -1.33723,4.8091 -1.90297,9.019 -1.29467,9.6341 0.59422,0.6009 23.48257,4.0999 50.86302,7.7756 27.38044,3.6757 68.3452,9.4612 91.03278,12.8566 22.68758,3.3954 43.19377,6.0839 45.56931,5.9744 l 4.31917,-0.1991 z m -434.68874,-58.3445 c 1.67305,-8.1073 2.73851,-15.0439 2.36768,-15.4147 -1.04844,-1.0485 -33.00972,-2.9043 -56.2686,-3.2672 l -21.00684,-0.3278 -2.5039,6.875 c -5.01221,13.7622 -6.3698,18.9879 -5.22919,20.1285 1.29554,1.2955 64.02066,7.2192 73.42287,6.934 l 6.17606,-0.1874 z m 644.53487,-96.1974 c 6.22084,-29.9089 26.88626,-125.3847 31.77829,-146.8182 2.63556,-11.5471 4.56569,-21.6196 4.28917,-22.3832 -0.27651,-0.7636 -4.83204,-1.7685 -10.12339,-2.2332 -5.29134,-0.4647 -13.27688,-1.6346 -17.74565,-2.5999 -6.27841,-1.3561 -8.44865,-1.4168 -9.54898,-0.2668 -0.78318,0.8185 -3.14967,8.8008 -5.25888,17.7383 -2.10919,8.9375 -7.54943,31.7188 -12.08939,50.6251 -13.70469,57.072 -26.90105,116.4113 -26.15643,117.6161 0.38558,0.6238 3.90224,1.1709 7.8148,1.2156 3.91257,0.045 11.61377,0.8102 17.11379,1.7011 18.02048,2.919 15.97176,4.4196 19.92667,-14.5949 z m -480.38309,-37.1877 c 0.58773,-1.0312 6.37512,-19.5938 12.86087,-41.2501 6.48576,-21.6563 14.68943,-48.3021 18.23039,-59.2129 3.54095,-10.9109 5.96635,-20.3097 5.38977,-20.8862 -1.43859,-1.4386 -33.17584,1.3628 -34.96945,3.0867 -2.11213,2.0301 -35.32006,105.3572 -37.36694,116.268 l -0.7353,3.9195 17.76103,-0.025 c 14.46083,-0.02 17.95959,-0.3734 18.82963,-1.9 z m 551.8555,-163.1663 c 48.72873,-8.4098 84.48594,-33.9886 96.17004,-68.7949 8.8929,-26.4915 3.39253,-50.901 -16.09206,-71.4132 -29.81527,-31.3877 -74.78884,-44.8764 -122.29018,-36.6781 -57.23337,9.8781 -96.79624,44.9398 -99.49666,88.1768 -1.1876,19.0148 5.55757,35.9518 20.74905,52.1004 17.5331,18.6378 44.48622,32.7634 71.01056,37.2153 10.51287,1.7645 38.15628,1.4289 49.94925,-0.6063 z m 236.50161,-44.6468 c 3.3016,-20.1344 4.324,-29.8313 3.2456,-30.7845 -1.461,-1.2913 -109.1979,-21.5955 -110.4577,-20.817 -0.51733,0.3198 -1.28471,5.8031 -1.70527,12.1851 -0.42058,6.3821 -1.61253,14.6863 -2.64878,18.4537 -1.27473,4.6344 -1.47388,7.2623 -0.61574,8.125 1.34318,1.3504 100.25919,20.3406 106.96649,20.5358 3.8747,0.1127 3.9536,0 5.2154,-7.6981 z m -405.73516,-50.9376 c 0.51567,-3.7813 1.85331,-10.6986 2.97254,-15.3718 1.11924,-4.6731 1.75003,-8.7816 1.40178,-9.1299 -0.53901,-0.539 -28.7211,-1.803 -72.61206,-3.2567 l -11.07174,-0.3667 -4.24082,11.7166 c -4.56756,12.6193 -5.12321,16.1599 -2.6783,17.0661 1.9976,0.7404 78.02727,6.6737 82.17689,6.413 2.79236,-0.1754 3.211,-0.906 4.05171,-7.0706 z M 891.68195,80.312539 c 1.51782,-2.4687 19.63296,-73.6385003 19.31287,-75.8754003 -0.34113,-2.3839 -1.34084,-2.5869 -14.36278,-2.9151 l -13.99612,-0.3528 -4.99808,15.9778003 c -10.60341,33.8971 -17.80611,59.349 -17.02093,60.1462 0.8249,0.8377 19.08569,3.4396 26.4999,3.7759 2.19381,0.1 4.24813,-0.2409 4.56514,-0.7566 z"
       style="fill:#005f9c" />
  </g>
  <g
     inkscape:label="fore"
     inkscape:groupmode="layer"
     id="layer1"
     transform="translate(57.057071,-73.34203)"
     style="display:inline">
    <path
       style="fill:#ffffff;fill-opacity:1"
       d="m 882.625,1.15625 -5,16 c -10.60341,33.897046 -17.78518,59.32771 -17,60.125 0.8249,0.83762 19.08579,3.44492 26.5,3.78125 2.19381,0.0995 4.24549,-0.23437 4.5625,-0.75 C 893.20532,77.84376 911.32009,6.67436 911,4.4375 910.65887,2.053517 909.64694,1.859511 896.625,1.53125 Z m -28.9375,105.1875 c -8.64551,0.0373 -17.4685,0.80655 -26.375,2.34375 -57.23337,9.87807 -96.79958,44.95056 -99.5,88.1875 -1.1876,19.01483 5.55852,35.94512 20.75,52.09375 17.5331,18.63779 44.47566,32.76687 71,37.21875 10.51287,1.76449 38.17578,1.44152 49.96875,-0.59375 48.72873,-8.40979 84.47215,-34.00619 96.15625,-68.8125 8.8929,-26.49148 3.39084,-50.89405 -16.09375,-71.40625 -24.22491,-25.50251 -58.44238,-39.19284 -95.90625,-39.03125 z M 620.96875,161.875 616.75,173.59375 c -4.56756,12.61934 -5.13241,16.15632 -2.6875,17.0625 1.9976,0.7404 78.03788,6.66691 82.1875,6.40625 2.79236,-0.17542 3.19054,-0.89784 4.03125,-7.0625 0.51567,-3.78126 1.88077,-10.70182 3,-15.375 1.11924,-4.67319 1.72325,-8.77673 1.375,-9.125 -0.53901,-0.539 -28.70279,-1.79627 -72.59375,-3.25 z M 999.25,189.3125 c -0.24084,-0.0156 -0.39813,0.007 -0.4375,0.0312 -0.51733,0.31974 -1.26694,5.80541 -1.6875,12.1875 -0.42058,6.38209 -1.62,14.67007 -2.65625,18.4375 -1.27473,4.63441 -1.48314,7.26227 -0.625,8.125 1.34318,1.35037 100.26145,20.33606 106.96875,20.53125 3.8747,0.11275 3.957,0.007 5.2187,-7.6875 3.3017,-20.13446 4.3285,-29.82808 3.25,-30.78125 -1.4153,-1.25091 -102.5652,-20.35937 -110.0312,-20.8437 z M 798.5625,310.84375 c -0.87376,0.0863 -1.43113,0.35 -1.84375,0.78125 -0.78318,0.81853 -3.17204,8.81247 -5.28125,17.75 -2.10919,8.93752 -7.55379,31.71869 -12.09375,50.625 -13.70469,57.07194 -26.90087,116.42018 -26.15625,117.625 0.38558,0.62386 3.89994,1.17404 7.8125,1.21875 3.91257,0.0448 11.62498,0.79659 17.125,1.6875 18.02048,2.91899 15.98259,4.42078 19.9375,-14.59375 6.22084,-29.90887 26.88922,-125.37906 31.78125,-146.8125 2.63556,-11.54719 4.55777,-21.6114 4.28125,-22.375 -0.27651,-0.76361 -4.83365,-1.78533 -10.125,-2.25 -5.29134,-0.46465 -13.28123,-1.62848 -17.75,-2.59375 -3.92401,-0.8476 -6.23124,-1.2063 -7.6875,-1.0625 z M 350.53125,327 c -8.67969,-0.0289 -29.88644,2.09932 -31.34375,3.5 -2.11213,2.03005 -35.32812,105.33922 -37.375,116.25 l -0.71875,3.9375 17.75,-0.0312 c 14.46083,-0.0204 17.94246,-0.37965 18.8125,-1.90625 0.58773,-1.03125 6.38925,-19.59368 12.875,-41.25 6.48576,-21.65631 14.67779,-48.30795 18.21875,-59.21875 3.54095,-10.91082 5.98283,-20.29842 5.40625,-20.875 -0.26974,-0.26974 -1.62199,-0.39959 -3.625,-0.40625 z M 298.3125,478.9375 c -1.82796,0.0152 -3.76909,0.0619 -5.8125,0.15625 -16.31591,0.753 -25.26222,3.23042 -39.78125,11 -38.15723,20.41911 -68.43218,66.51944 -74.09375,112.8125 -2.96969,24.28232 2.15761,51.6505 13.46875,71.96875 5.52982,9.93323 18.62507,23.25281 27.53125,28 15.45498,8.23784 37.72311,10.54984 56.125,5.84375 32.0656,-8.20044 61.56075,-33.84898 80.25,-69.78125 12.41273,-23.86494 17.15193,-42.27769 17.09375,-66.4375 -0.0954,-39.60286 -16.87477,-72.96758 -43.4375,-86.40625 -10.52836,-5.32653 -18.54802,-7.26278 -31.34375,-7.15625 z m 456.03125,47.40625 c -7.05925,-0.002 -14.21129,0.58172 -21.375,1.8125 -31.14771,5.3514 -59.752,20.60735 -81.25,43.34375 -15.5606,16.45696 -25.72466,34.12588 -32.5625,56.625 -3.18211,10.47038 -3.40625,12.80924 -3.40625,33.75 0,20.98673 0.24231,23.24778 3.4375,33.625 15.81887,51.37598 55.29144,86.40525 106.53125,94.46875 9.97725,1.57011 34.154,0.65715 44.90625,-1.6875 27.84997,-6.07297 52.7787,-19.56417 72.59375,-39.25 17.78537,-17.66939 30.10707,-38.76296 36.46875,-62.53125 2.8128,-10.50911 3.21875,-14.63352 3.21875,-30.875 0,-16.20175 -0.43664,-20.39174 -3.21875,-30.78125 -15.7593,-58.85157 -67.86129,-98.4808 -125.34375,-98.5 z M 78.625,563.125 76.09375,570 c -5.012215,13.76215 -6.359361,18.98438 -5.21875,20.125 1.295545,1.29554 64.03529,7.22277 73.4375,6.9375 l 6.15625,-0.1875 3.0625,-14.75 c 1.67306,-8.10725 2.71458,-15.03542 2.34375,-15.40625 -1.04844,-1.04845 -32.99112,-2.88706 -56.25,-3.25 z M 406.78125,588 c -6.58738,0.19092 -6.40554,2.91602 -7.28125,10.65625 -0.45889,4.05599 -1.91247,11.23963 -3.21875,15.9375 -1.33723,4.80917 -1.9208,9.00987 -1.3125,9.625 0.59422,0.6009 23.49455,4.10556 50.875,7.78125 27.38044,3.6757 68.34367,9.44832 91.03125,12.84375 22.68758,3.39542 43.18696,6.07824 45.5625,5.96875 l 4.3125,-0.1875 1.46875,-10.15625 c 0.79359,-5.58029 2.41522,-14.18835 3.625,-19.125 1.20979,-4.93665 1.88023,-9.27601 1.5,-9.65625 C 592.08973,610.43349 488.57481,596.80755 427.625,589.875 417.11088,588.67911 410.73368,587.88545 406.78125,588 Z m 506.1875,74.9375 c -0.17025,0.0208 -0.27102,0.0801 -0.34375,0.125 -0.5953,0.36792 -1.45672,3.91279 -1.90625,7.875 -0.44954,3.96223 -1.99397,12.96374 -3.4375,20.03125 -1.44353,7.06751 -2.39084,13.04581 -2.125,13.28125 0.26585,0.23543 27.46863,5.26757 60.46875,11.1875 33.00011,5.91992 68.4375,12.40633 78.75,14.40625 22.2815,4.32107 22.4899,4.3406 24.0625,2.34375 1.7463,-2.2172 6.9749,-38.5154 5.7187,-39.6875 -0.5721,-0.53389 -27.1873,-5.80807 -59.1562,-11.6875 -84.0794,-15.46313 -99.47749,-18.18731 -102.03125,-17.875 z M 213.0625,732.34375 c -0.18557,0.008 -0.32899,0.0135 -0.40625,0.0625 -3.7303,2.36547 -33.42203,193.01973 -31.03125,199.25 0.64013,1.6682 2.63067,2.12285 9.90625,2.21875 5.00597,0.066 11.90624,0.83515 15.34375,1.71875 7.99858,2.056 9.07185,2.1626 9.90625,0.8125 0.37771,-0.6111 3.27082,-19.29601 6.40625,-41.5 5.98227,-42.36444 15.39901,-100.54199 21.71875,-134.1875 2.05605,-10.94617 3.48363,-20.30211 3.1875,-20.78125 -0.29613,-0.47914 -4.3441,-1.22262 -9,-1.6875 -4.65589,-0.46486 -12.2467,-2.15447 -16.875,-3.71875 -4.04978,-1.36875 -7.85729,-2.24509 -9.15625,-2.1875 z m 479.3125,79.4375 c -0.61949,0.0217 -1.01104,0.13603 -1.1875,0.3125 -2.25036,2.25035 -37.19924,217.23665 -35.875,220.68745 0.40498,1.0554 5.25561,2.2131 13.59375,3.2188 7.12944,0.8599 15.78124,2.3251 19.21875,3.2812 7.86484,2.1878 7.8314,2.2097 8.65625,0.875 0.37781,-0.6113 4.91778,-27.1894 10.09375,-59.06245 5.17596,-31.8732 13.38402,-80.97594 18.21875,-109.09375 5.31215,-30.89423 8.34703,-51.55922 7.65625,-52.25 -0.62869,-0.62869 -5.29639,-1.69756 -10.375,-2.375 -5.0786,-0.67743 -13.93644,-2.41237 -19.65625,-3.84375 -4.76913,-1.19348 -8.48528,-1.81494 -10.34375,-1.75 z m -507.25,149.375 c -18.01337,-0.14334 -34.22903,7.50762 -48.25,22.875 -18.09743,19.83525 -28.125,47.25305 -28.125,76.93755 0,46.2474 21.33009,93.5138 52.90625,117.25 21.13721,15.8891 44.78868,22.3161 64.03125,17.375 27.22517,-6.991 49.42182,-31.529 59.34375,-65.5938 3.92757,-13.4844 4.79236,-40.2577 1.875,-57.7188 -7.89142,-47.2318 -33.65489,-86.32655 -67.5,-102.43745 -11.99965,-5.71207 -23.47323,-8.6015 -34.28125,-8.6875 z m 978,45.71875 -0.3438,24.9688 c -0.1868,13.7307 -0.062,25.6986 0.2813,26.5937 0.4867,1.2683 5.3924,1.5479 22.2187,1.2813 l 21.5938,-0.3438 v -26.25 -26.25 H 1185 Z M 5.9375,1007.0625 c -0.684078,0.4228 -0.916833,3.3068 -0.53125,6.5313 0.379836,3.1763 1.080254,9.0203 1.5625,12.9687 0.482246,3.9484 1.517564,7.6656 2.28125,8.2813 1.039628,0.8379 42.570839,16.674 67,25.5312 3.77901,1.3702 4.3846,-0.2159 5.28125,-13.5625 0.513385,-7.6417 0.434921,-14.0962 -0.1875,-14.7187 -1.862797,-1.8629 -74.096125,-25.841 -75.40625,-25.0313 z m 644.65625,55.6875 c -1.85983,0 -3.72935,0.067 -5.59375,0.1562 -29.07057,1.3919 -55.12719,11.792 -77.25,30.8438 -37.11676,31.9644 -49.63242,82.2364 -32.59375,130.9688 16.69015,47.7355 60.68236,84.6215 111.09375,93.1562 7.75846,1.3135 31.79188,0.7348 40.9375,-1 40.05461,-7.5983 72.54481,-31.7317 88.96875,-66.0625 14.21664,-29.7171 15.91344,-57.7637 5.46875,-90.1875 -18.464,-57.3184 -73.37654,-97.9866 -131.03125,-97.875 z M 317.5,1101.0312 c -0.69134,0.2305 -1.25598,3.8854 -1.28125,8.125 -0.0252,4.2397 -0.8367,11.6563 -1.78125,16.4688 -0.94454,4.8125 -1.31954,9.1534 -0.84375,9.6562 1.35084,1.4277 65.89129,18.6424 118.28125,31.5313 26.12509,6.4273 50.87499,12.5462 55,13.5937 12.52826,3.182 12.35843,3.2915 13.34375,-10.4062 0.46981,-6.5313 1.45398,-14.4063 2.15625,-17.5 0.9503,-4.1865 0.87089,-5.9748 -0.25,-7 -0.82833,-0.7576 -20.62492,-5.7338 -44,-11.0625 -23.37508,-5.3287 -64.30062,-15.1163 -90.9375,-21.75 -26.63689,-6.6338 -48.99617,-11.8867 -49.6875,-11.6563 z M 1828.5312,1130 c -9.7519,0.013 -18.9404,0.5692 -25.5624,1.7188 -33.3063,5.782 -59.8298,20.2761 -78.6876,43 -7.7472,9.3356 -17.8317,29.09 -21.0624,41.2187 -2.93,10.9996 -4.2995,29.7766 -3.0938,42.8437 2.4407,26.45 10.4944,43.9 29.25,63.5313 5.1676,5.4089 9.3634,10.3576 9.3438,10.9687 -0.02,0.6112 -4.314,3.6251 -9.5626,6.7188 -12.4629,7.3464 -25.1544,19.7931 -29.7812,29.25 -4.6694,9.5436 -5.7731,24.6147 -2.5312,34.375 2.6569,7.9994 9.717,16.9052 17.9687,22.625 3.4714,2.4062 6.345,4.6562 6.375,5 0.03,0.3437 -5.1429,5.9814 -11.5,12.5312 -19.2701,19.8548 -26.5269,35.6299 -26.4063,57.4688 0.11,20.0161 7.5537,36.7391 23.5938,53.0625 22.5748,22.9736 56.9975,35.1756 116.25,41.1875 13.316,1.3511 52.9284,-0.3865 66.7188,-2.9375 28.3743,-5.2489 53.3817,-15.259 68.3437,-27.3125 19.9798,-16.0961 30.644,-37.6203 30.75,-62.125 0.1461,-33.7922 -19.1263,-61.5432 -53.4375,-76.9375 -30.6046,-13.7313 -69.0232,-19.9398 -146.4688,-23.6875 -32.0583,-1.5514 -37.104,-2.5034 -43.7812,-8.2188 -11.2979,-9.6708 -9.3019,-24.6098 4.375,-32.625 7.8843,-4.6204 19.0396,-5.1023 39.125,-1.7187 41.7016,7.0252 78.8775,3.597 107.2188,-9.9063 12.7862,-6.092 19.4128,-10.6113 29.75,-20.2812 20.8797,-19.5319 32.4252,-43.296 35.6874,-73.375 2.3977,-22.1058 -1.8516,-47.4591 -11,-65.5625 -1.6855,-3.3352 -2.7921,-6.8256 -2.4374,-7.75 1.5317,-3.9917 31.3659,-8.6747 49.75,-7.8125 l 7.9062,0.375 v -19.375 -19.375 l -11.0312,0.25 c -20.8749,0.4961 -44.7861,6.1887 -62.8126,14.9375 l -8.8437,4.3125 -9.25,-5.7188 c -10.7943,-6.655 -24.5411,-12.1926 -41.1875,-16.5937 -9.9322,-2.6259 -27.7155,-4.0847 -43.9688,-4.0625 z M 1456,1130.0312 c -7.4903,0.048 -14.5224,0.4228 -20.1562,1.1876 -51.8189,7.0343 -91.0325,39.0122 -103.5626,84.4687 -2.297,8.3332 -2.7402,13.3593 -2.8124,31.1875 -0.075,18.5146 0.2592,22.5144 2.7187,31 5.1592,17.7994 15.0858,34.1435 28.9687,47.7188 3.4892,3.4115 6.3261,6.7865 6.3126,7.5 -0.014,0.7134 -4.7375,4.2586 -10.5,7.875 -21.3787,13.4164 -31.9294,28.243 -32.9376,46.3124 -0.4363,7.8209 -0.013,10.9823 2.2813,17.0626 2.9369,7.7854 11.3207,17.869 19.4063,23.375 2.3563,1.6044 4.2765,3.2947 4.2812,3.7812 0,0.4865 -4.6641,5.5489 -10.375,11.25 -18.9209,18.888 -25.8161,33.0039 -26.8125,54.8438 -0.6945,15.2231 0.9855,22.9081 7.9375,36.1874 18.9215,36.1431 58.2485,54.4749 132.375,61.7188 11.3905,1.1132 51.731,-0.3789 62.5,-2.3125 24.3438,-4.3712 45.7922,-11.5429 61.25,-20.5 10.8771,-6.3029 26.6051,-22.6192 32.125,-33.3125 6.6971,-12.9736 8.9739,-21.8951 9.0312,-35.625 0.058,-13.7685 -1.755,-22.1717 -7.375,-34.375 -19.8282,-43.0555 -71.8017,-61.8723 -183.1562,-66.2812 -40.9053,-1.6196 -50.2196,-3.6064 -56.8125,-12.25 -3.7192,-4.876 -4.3384,-13.7381 -1.375,-19.4688 2.7429,-5.304 10.04,-11.0998 16,-12.7188 6.0884,-1.6538 19.3174,-0.9396 37.1875,1.9688 45.9038,7.4711 87.6189,0.7682 117,-18.7812 12.8953,-8.5804 29.5057,-26.0356 36.375,-38.1876 18.4202,-32.5863 20.234,-74.6529 4.75,-110.4062 -3.9472,-9.1142 -4.193,-10.2837 -2.375,-11.625 4.5966,-3.3913 32.6374,-7.0618 48.625,-6.375 l 8.75,0.375 v -19.375 -19.375 l -11.5625,0.25 c -20.3358,0.4193 -42.9847,5.6564 -61.375,14.2188 l -10.4375,4.875 -8.4688,-5.0313 c -11.9347,-7.0903 -27.3244,-13.3517 -41.9062,-17.0313 -10.7358,-2.7089 -29.3963,-4.2309 -45.875,-4.125 z m -292.875,6.8438 -0.3125,162.5 c -0.1768,89.3753 -0.053,163.2182 0.2813,164.0938 0.4656,1.2234 5.5987,1.5128 22.1874,1.25 l 21.5938,-0.3438 v -163.75 -163.75 H 1185 Z m 669.375,32.4062 c 11.1749,0 22.3175,0.784 29.125,2.375 28.1925,6.5923 50.3336,26.7835 57.8125,52.6876 2.7723,9.6021 2.8214,27.4328 0.094,38.0312 -6.7364,26.1749 -29.4859,48.1802 -58.2812,56.375 -12.1531,3.4586 -40.2702,4.521 -53.125,2 -19.9005,-3.9027 -33.5784,-10.9378 -46.25,-23.75 -9.565,-9.6714 -16.5926,-22.1462 -19.4375,-34.5 -2.0381,-8.8507 -2.0464,-26.2088 0,-35 6.3639,-27.3309 29.6317,-48.718 60.6875,-55.8125 6.9767,-1.5937 18.2001,-2.4044 29.375,-2.4063 z m -375.75,0.3126 c 1.448,-0.018 2.9381,0 4.5,0 18.6013,-0.024 23.3336,0.3674 31.625,2.6562 29.221,8.0666 50.9063,29.6112 56.5312,56.1562 3.593,16.9559 1.7306,31.049 -6.2812,47.4063 -11.746,23.9813 -33.5042,39.7697 -61.875,44.9063 -10.3246,1.8693 -30.3261,2.0585 -41.625,0.4062 -26.9314,-3.9381 -51.008,-20.3844 -62.1562,-42.4688 -10.1241,-20.0553 -9.9857,-48.1849 0.3437,-67.9062 5.9279,-11.318 20.5635,-25.515 32.1875,-31.1875 15.4973,-7.5627 25.0297,-9.7037 46.75,-9.9687 z m -640,38.0624 c -0.76029,0.5991 -1.70956,5.1739 -2.09375,10.1563 -0.38419,4.9824 -1.65943,12.9099 -2.84375,17.5937 -1.25147,4.9493 -1.67588,8.9563 -1.03125,9.5938 1.33422,1.3195 147.6376,26.014 154.96875,26.1562 l 5.15625,0.094 3.96875,-18.2812 c 2.1853,-10.0588 3.6527,-18.5974 3.28125,-18.9688 -1.49419,-1.4942 -160.09151,-27.3798 -161.40625,-26.3438 z m -655.09375,5.1876 c -1.56246,0.42 -1.62249,7.6118 -1.34375,57.3124 l 0.3125,57.9688 14.375,7.7812 c 7.90627,4.2854 14.9375,7.6227 15.625,7.4063 0.7658,-0.241 1.55921,-13.1748 2.03125,-33.4063 1.31099,-56.1885 1.47964,-84.4847 0.5625,-85.9687 -0.48409,-0.7833 -2.08744,-1.4459 -3.59375,-1.4687 -1.5063,-0.023 -7.81248,-2.0433 -14,-4.4688 -6.18752,-2.4254 -12.22744,-4.7099 -13.4375,-5.0938 -0.19516,-0.062 -0.36962,-0.1059 -0.53125,-0.062 z m 452.28125,126.875 c -0.21418,0.013 -0.3477,0.038 -0.40625,0.094 -1.53427,1.4479 -15.17077,122.798 -13.9375,124.0313 1.47666,1.4766 30.42947,9.8722 32.875,9.5312 1.00688,-0.1403 2.22992,-1.9421 2.75,-4 1.86934,-7.3963 16.31047,-119.3387 15.625,-121.125 -0.41126,-1.0717 -3.19377,-2.1552 -6.71875,-2.625 -3.30568,-0.4405 -11.34373,-2.091 -17.875,-3.6875 -5.71487,-1.3969 -10.81325,-2.3123 -12.3125,-2.2187 z m 776.1563,106.25 14.6562,0.8437 c 60.6737,3.4701 108.4936,9.2544 130.875,15.875 18.0684,5.3448 31.6779,14.401 37.5,24.9375 7.1674,12.9714 4.0831,31.1993 -7.125,42 -9.8921,9.5321 -27.2644,17.0606 -48.5,21 -8.4369,1.5651 -51.0967,4.8593 -53.75,4.1562 -0.3437,-0.091 -7.375,-0.5581 -15.625,-1.0624 -46.3617,-2.8336 -82.3305,-17.9136 -95.4062,-39.9688 -2.9161,-4.9186 -3.3278,-6.9594 -3.3126,-16.25 0.015,-9.0843 0.5085,-11.5382 3.375,-17 4.9206,-9.3759 14.8305,-19.5793 26.7813,-27.5312 z m 374.875,0.2812 c 7.6909,0.019 57.3957,3.6777 76.9062,5.6562 53.8647,5.4623 79.2525,12.6512 94.7812,26.8438 8.2506,7.5404 11.2133,14.0463 11.1876,24.5312 -0.051,20.86 -17.3672,36.9869 -48.0938,44.7813 -20.4511,5.1879 -52.1597,7.3697 -81.6562,5.5937 -47.0216,-2.8314 -85.9239,-20.2093 -95.5938,-42.6874 -3.6509,-8.4868 -3.1569,-21.3461 1.1562,-30.1876 6.6381,-13.6077 31.6994,-34.5548 41.3126,-34.5312 z"
       transform="translate(-57.057071,73.34203)"
       id="path3080"
       inkscape:connector-curvature="0" />
  </g>
</svg>
