<?xml version="1.0" encoding="UTF-8" standalone="no"?>
<svg
   xmlns:dc="http://purl.org/dc/elements/1.1/"
   xmlns:cc="http://creativecommons.org/ns#"
   xmlns:rdf="http://www.w3.org/1999/02/22-rdf-syntax-ns#"
   xmlns:svg="http://www.w3.org/2000/svg"
   xmlns="http://www.w3.org/2000/svg"
   xmlns:sodipodi="http://sodipodi.sourceforge.net/DTD/sodipodi-0.dtd"
   xmlns:inkscape="http://www.inkscape.org/namespaces/inkscape"
   width="179.23468mm"
   height="54.956554mm"
   viewBox="0 0 179.23468 54.956555"
   version="1.1"
   id="svg8"
   sodipodi:docname="itclogodouble_INV.svg"
   inkscape:version="1.0.1 (3bc2e813f5, 2020-09-07)"
   inkscape:export-filename="/home/roelof/cld_UTwente/MultiMedia/UTwenteHuisstijl/itc/itclogodouble_INV.png"
   inkscape:export-xdpi="120"
   inkscape:export-ydpi="120">
  <defs
     id="defs2" />
  <sodipodi:namedview
     id="base"
     pagecolor="#ffffff"
     bordercolor="#666666"
     borderopacity="1.0"
     inkscape:pageopacity="0.0"
     inkscape:pageshadow="2"
     inkscape:zoom="0.7"
     inkscape:cx="324.70247"
     inkscape:cy="278.32956"
     inkscape:document-units="mm"
     inkscape:current-layer="layer1"
     inkscape:document-rotation="0"
     showgrid="false"
     fit-margin-top="0"
     fit-margin-left="0"
     fit-margin-right="0"
     fit-margin-bottom="0"
     inkscape:window-width="1440"
     inkscape:window-height="854"
     inkscape:window-x="0"
     inkscape:window-y="0"
     inkscape:window-maximized="0" />
  <metadata
     id="metadata5">
    <rdf:RDF>
      <cc:Work
         rdf:about="">
        <dc:format>image/svg+xml</dc:format>
        <dc:type
           rdf:resource="http://purl.org/dc/dcmitype/StillImage" />
        <dc:title></dc:title>
      </cc:Work>
    </rdf:RDF>
  </metadata>
  <g
     inkscape:label="Layer 1"
     inkscape:groupmode="layer"
     id="layer1"
     transform="translate(-19.922471,-120.6384)">
    <path
       d="m 137.36796,136.72519 h 1.38536 v 38.63053 h -1.38536 v -38.63053"
       style="fill:#308b7d;fill-opacity:1;fill-rule:nonzero;stroke:none;stroke-width:0.0352778"
       id="path863" />
    <path
       d="m 171.55919,168.53196 h 4.44817 v 6.7995 h -4.44817 v -6.7995 0"
       style="fill:#ffffff;fill-opacity:1;fill-rule:nonzero;stroke:none;stroke-width:0.0352778"
       id="path903" />
    <path
       d="m 187.86987,168.53196 v 2.2098 l -2.4511,-0.0631 v 4.65281 h -4.44782 v -4.65281 l -2.45111,0.0631 v -2.2098 h 9.35003 v 0"
       style="fill:#ffffff;fill-opacity:1;fill-rule:nonzero;stroke:none;stroke-width:0.0352778"
       id="path905" />
    <path
       d="m 198.76082,171.29146 c -0.71437,-0.36972 -1.6069,-0.68513 -2.61337,-0.68513 -1.33103,0 -2.41865,0.58592 -2.41865,1.32581 0,0.74812 1.15217,1.32565 2.4832,1.32565 1.02271,0 1.83445,-0.24377 2.54882,-0.63114 l -0.12982,2.5429 c -0.71402,0.18934 -2.37031,0.2705 -3.16583,0.2705 -3.48932,0 -6.217,-1.50591 -6.217,-3.44523 0,-1.9837 2.80846,-3.5712 6.39586,-3.5712 1.00683,0 2.04541,0.0995 2.98697,0.27947 l 0.12982,2.58837 v 0"
       style="fill:#ffffff;fill-opacity:1;fill-rule:nonzero;stroke:none;stroke-width:0.0352778"
       id="path907" />
    <path
       d="m 152.59244,142.15162 c -3.5e-4,0.0121 -0.0251,0.0113 -0.0254,0.0236 0.0116,0.0249 0.0106,0.0493 0.0222,0.0745 -0.41805,2.80733 2.02565,13.03831 10.8211,17.36259 0.012,0.0127 0.0113,0.0251 0.0109,0.0375 0.06,0.0512 0.15522,0.0765 0.22825,0.10364 0.21766,0.10513 0.42298,0.24197 0.64029,0.3598 0.13229,0.0784 0.29457,0.0929 0.42615,0.19512 0.084,0.0638 0.16757,0.12845 0.26423,0.18027 0.4699,0.27379 0.91511,0.5581 1.38536,0.8315 0.39935,0.22271 0.62477,0.34188 1.01036,0.53841 -0.40852,-0.2716 -0.56268,-0.26596 -0.91334,-0.54998 -0.2466,-0.18426 -0.53199,-0.30522 -0.78599,-0.48892 -0.13371,-0.0968 -0.17428,-0.21886 -0.3235,-0.30592 -0.17357,-0.1203 0.0109,-0.0204 -0.1517,-0.10901 -0.10865,-0.0593 -0.3436,-0.26141 -0.44167,-0.32879 -0.15134,-0.10337 -0.56798,-0.40598 -0.68051,-0.58141 -0.0339,-0.0737 -0.34713,-0.33514 -0.39229,-0.38199 -0.11007,-0.1137 -0.22472,-0.23291 -0.28857,-0.30484 -0.14217,-0.0977 -0.15064,-0.14993 -0.24342,-0.27269 -0.0272,-0.0357 -0.17392,-0.21209 -0.19932,-0.24903 -0.13582,-0.1965 -0.34607,-0.49678 -0.53657,-0.67839 -0.18874,-0.1651 -0.31645,-0.56349 -0.44697,-0.75668 -0.0621,-0.0872 -0.19544,-0.23498 -0.25788,-0.33129 -0.23178,-0.35567 -0.4057,-0.76976 -0.58808,-1.12187 -0.19474,-0.37634 -0.22896,-0.56913 -0.44768,-1.07555 l -0.16827,-0.24348 c -4.67502,-7.11179 -2.07152,-16.39747 1.66581,-21.05519 5.73441,-7.14693 15.86477,-8.52841 21.40691,-8.7496 -0.16228,-0.14429 -0.30092,-0.30127 -0.48718,-0.42051 -0.12453,-0.0836 -0.23672,-0.17956 -0.37324,-0.23813 -0.0243,-0.012 -0.0741,-0.0109 -0.11042,-0.0102 -0.0487,0.0131 -0.0984,-0.0102 -0.14782,-0.0215 -0.0497,-0.0236 -0.0631,-0.097 -0.11289,-0.10865 -0.0984,-0.0226 -0.18415,-0.008 -0.28328,-0.0438 -0.049,-0.0233 -0.0469,0.2413 -0.0833,0.21661 -0.0857,-0.0378 -0.1711,-0.0632 -0.26952,-0.0762 -0.0857,-0.0131 -0.0603,-0.12312 -0.0229,-0.1845 -0.14711,-0.0501 -0.29387,-0.0392 -0.44133,-0.0406 -0.13511,-0.001 -0.25788,-0.002 -0.39264,-0.0282 -0.0247,0 -0.0614,-0.0127 -0.0854,-0.0254 -0.0251,0 -0.34431,0.009 -0.45509,0.008 -0.024,-3.5e-4 -0.13335,-0.14887 -0.0959,-0.18521 0.0494,-0.024 0.41769,-0.0208 0.45402,-0.0205 0.0861,0.0131 0.17216,-0.0229 0.25859,-0.0226 0.0243,-0.0116 0.12241,-0.0109 0.14711,-0.0106 0.0737,-0.024 0.1845,-0.0843 0.1845,-0.072 0.0247,3.5e-4 0.13582,-0.0356 0.12312,-0.0356 -0.23107,-0.2353 -0.51188,-0.39758 -0.79269,-0.54751 -0.049,-0.0247 -0.50165,-0.20108 -0.58738,-0.22613 -0.0367,-0.0127 -0.42968,-0.0162 -0.58843,-0.079 -0.049,-0.0127 -0.19544,-0.12453 -0.17075,-0.13652 0.0737,7e-4 0.34326,0.0765 0.41699,0.0772 0.0981,-0.0113 0.19614,0.0141 0.29421,0.003 0.0123,0 0.0127,-0.0243 0.0127,-0.0243 -0.0734,-0.0131 -0.13405,-0.0875 -0.20813,-0.0635 -0.0247,0.0123 -0.0617,0.0363 -0.0861,0.0236 -0.1464,-0.0871 -0.28046,-0.19861 -0.42722,-0.27376 -0.31785,-0.16227 -0.64628,-0.31361 -0.98848,-0.42721 -0.24518,-0.0635 -1.27035,-0.46637 -1.6263,-0.53093 -0.24483,-0.0515 -0.49107,0.0325 -0.72355,-0.0434 -0.56515,0.0561 -1.68346,0.28787 -2.2479,0.28116 0.14711,-0.0466 0.56127,-0.21166 0.87418,-0.31573 -0.0766,-3.6e-4 -0.35772,0.002 -0.35772,0.002 -0.26881,-0.0455 -0.55139,-0.0423 -0.82232,-0.0145 -0.45579,0.0342 -1.71309,0.17745 -1.72544,0.17674 -0.049,-10e-4 -0.38347,0.0857 -0.37182,0.0984 0.012,0.0127 0.036,0.0381 0.036,0.0381 0.19403,0.0677 0.3944,-0.0487 0.5902,-0.03 -0.0381,0.0356 -0.0155,0.0977 -0.0649,0.10866 -0.39617,0.0974 -1.85562,0.40604 -1.90465,0.40428 -0.012,-3.5e-4 -0.025,0.0113 -0.0254,0.024 -0.004,0.12241 -0.34855,0.14781 -0.36089,0.14781 -0.0229,-0.0504 -0.25718,-0.0208 -0.26953,-0.0212 -0.0247,0.0113 -0.0621,0.0226 -0.0751,0.0466 -0.0131,0.0243 -0.44873,0.19403 -0.68439,0.27235 -0.18697,0.0797 -0.37394,0.1598 -0.57185,0.20249 -0.0127,0.0116 -0.0367,-0.001 -0.049,-0.002 -0.0631,0.0593 -0.13864,0.10583 -0.22472,0.11535 -0.0494,0.0109 -0.12241,-0.0162 -0.1725,0.019 -0.025,0.0113 -0.0512,0.0596 -0.0762,0.0713 -0.15099,0.10548 -0.33655,0.14816 -0.49813,0.21695 -0.33725,0.16087 -1.56986,0.67346 -1.73213,0.75389 -0.0748,0.0342 -0.13724,0.0691 -0.19968,0.10407 l -0.13017,-0.0134 c -0.0247,-0.001 -0.2854,0.0885 -0.31045,0.10019 -0.0871,0.0342 -0.43779,0.24342 -0.55033,0.30128 -0.012,-3.6e-4 -0.22366,0.0787 -0.3235,0.12453 -0.0374,0.0236 -0.15204,0.15487 -0.1785,0.2032 0.049,10e-4 0.18521,-0.031 0.18485,-0.019 -0.13864,0.10618 -0.27693,0.21237 -0.4385,0.26846 -0.0374,0.0113 -0.24271,-0.0938 -0.21766,-0.10548 0.0981,0.003 0.17392,-0.0677 0.24976,-0.12665 0.0127,-0.012 -0.0102,-0.0621 0.0152,-0.0857 0.12559,-0.0942 0.26282,-0.15099 0.41205,-0.20744 0.0254,-0.0236 0.13793,-0.0815 0.16263,-0.0931 0.10019,-0.0582 0.16474,-0.15381 0.26458,-0.20002 0.0998,-0.0459 0.37536,-0.20885 0.41205,-0.20744 0.12347,-0.0208 0.21201,-0.10371 0.32349,-0.12453 l -0.0123,0.008 c 0.0494,-0.0106 0.0991,-0.0212 0.14887,-0.0441 0.0751,-0.0466 0.115,-0.14358 0.20214,-0.17745 0.0744,-0.0222 1.22096,-0.52529 1.23296,-0.52458 0.11183,-0.0332 0.21061,-0.0543 0.32244,-0.0878 0.0374,-0.0236 0.0638,-0.0716 0.10089,-0.0825 0.0494,-0.0109 0.0977,0.0152 0.13511,0.004 0.0748,-0.0346 0.1143,-0.11888 0.18874,-0.14111 0.0617,-0.0102 0.12171,0.0286 0.18415,0.006 0.0247,-0.0113 0.0861,-0.01 0.0995,-0.0459 0.0131,-0.0243 -0.0229,-0.0501 0.0145,-0.061 0.025,-0.0117 0.0483,0.0261 0.0734,0.0148 0.0127,-0.012 0.0247,-0.0116 0.0374,-0.0233 0.0494,-0.0106 0.097,0.0402 0.14746,0.005 0.0501,-0.0353 0.0885,-0.0829 0.0282,-0.12171 0.0508,-0.0473 0.13829,-0.0938 0.21061,-0.0547 -0.0131,0.0243 0.18415,0.006 0.28222,0.009 0.0367,0.001 0.13582,-0.0198 0.12524,-0.0692 -0.0102,-0.0621 -0.0981,-0.0159 -0.13582,0.0201 -0.025,0.0113 -0.061,-0.0145 -0.085,-0.0275 0.0254,-0.0236 0.0508,-0.0476 0.0755,-0.0593 0.025,-0.0113 0.13582,-0.0198 0.16086,-0.0314 0.025,-0.0113 0.32209,-0.0878 0.44556,-0.10795 0.0617,-0.0102 0.0769,-0.096 0.139,-0.11853 0.0744,-0.0222 0.13758,-0.0691 0.21166,-0.091 0.0123,3.6e-4 0.19756,-0.0307 0.2226,-0.042 0.0247,-0.0116 0.0504,-0.0353 0.0624,-0.0349 0.0617,-0.0102 0.0836,0.0765 0.14534,0.066 0.037,-0.0109 0.22543,-0.1397 0.31186,-0.14923 0.0127,-0.012 0.0504,-0.0353 0.0508,-0.0473 -0.024,-0.0254 -0.0586,-0.0882 -0.096,-0.0649 -0.13829,0.0938 -0.29704,0.0642 -0.4579,0.0956 -0.0367,-0.001 -0.0628,0.0473 -0.0882,0.0709 -0.024,-0.0254 -0.0473,-0.0508 -0.0843,-0.0519 -0.0123,-7e-4 -0.0621,0.0222 -0.0744,0.0219 -0.11324,0.0825 -0.23671,0.10301 -0.36054,0.13582 -0.0868,0.0219 -0.17356,0.0434 -0.26,0.0653 -0.0864,0.009 -0.16086,0.0318 -0.248,0.0656 -0.037,0.0106 -0.0603,-0.0265 -0.0977,-0.0155 -0.0247,0.0113 -0.36018,0.12312 -0.39687,0.12171 -0.12347,0.0208 -0.22331,0.0667 -0.33444,0.0875 -0.025,0.0116 -0.17462,0.0801 -0.19967,0.0917 -0.12418,0.0452 -0.22472,0.11571 -0.3362,0.14887 -0.025,0.0116 -0.14922,0.0441 -0.17427,0.0677 -0.11218,0.0452 -0.22366,0.0787 -0.33655,0.14887 -0.0123,-3.5e-4 -0.82197,0.34149 -0.84702,0.35313 -0.024,-0.001 -0.53551,0.22789 -0.54786,0.23989 -0.0631,0.0469 -0.14923,0.0455 -0.17568,0.10654 -0.27305,0.0892 -0.50024,0.26776 -0.7747,0.3937 -0.0995,0.0462 -0.20003,0.11641 -0.28893,0.19932 -0.0381,0.048 -0.0649,0.10865 -0.1143,0.11924 -0.0748,0.0342 -0.1718,-0.006 -0.22225,0.0293 -0.0628,0.0473 -0.11289,0.0825 -0.17604,0.12947 -0.15098,0.10548 -0.47589,0.2794 -0.50129,0.30303 -0.0512,0.072 -0.1263,0.10654 -0.20144,0.15311 -0.0505,0.0349 -0.12418,0.0448 -0.17462,0.0801 -0.0882,0.0709 -0.13053,0.2293 -0.22825,0.22613 -0.16016,0.019 -0.37465,0.18415 -0.3997,0.19544 -0.18768,0.10442 -0.2921,0.29774 -0.47978,0.40216 -0.0247,0.0113 -0.25223,0.20038 -0.36547,0.28293 -0.0254,0.0236 -0.21379,0.1524 -0.27693,0.21202 -0.0632,0.0469 -0.2286,0.22578 -0.2667,0.26106 -0.0625,0.0349 -0.13653,0.0448 -0.18698,0.0924 -0.17603,0.11677 -0.54363,0.46108 -0.56903,0.49707 -0.12664,0.10618 -0.25329,0.22507 -0.37923,0.33126 -0.0762,0.0716 -0.15205,0.13017 -0.2279,0.20143 -0.72848,0.63147 -6.69537,6.73559 -6.44031,15.14193 z m 27.60275,-19.36997 c 0.14746,-3.5e-4 0.30691,-0.013 0.45437,0.0233 0.0494,0.012 0.0984,0 0.13547,0.0487 0.012,0.0243 -0.012,0.037 -0.0247,0.0494 -0.0243,0 -0.049,-0.0243 -0.0737,-0.0243 -0.0737,0.0123 -0.15911,0 -0.23319,-0.012 -0.0123,0 -0.037,-0.0258 -0.0494,-0.0243 -0.0981,0.0123 -0.20849,0.0374 -0.27023,-0.0483 -0.0123,-0.0123 0.037,-0.0123 0.0614,-0.0123 z m -7.63165,-1.97556 c 0.012,0.003 0.012,0.003 0.009,0.0148 -0.0148,0.009 -0.0265,0.006 -0.0385,0.004 -0.009,-0.0148 0.0173,-0.0208 0.0293,-0.0183 z m -19.32834,24.28696 c -0.0134,-0.0134 -0.0265,-0.0266 -0.0399,-0.04 3.5e-4,-0.0266 3.5e-4,-0.0533 7e-4,-0.0798 -0.0131,-0.0798 -0.0261,-0.15956 -0.0258,-0.23922 3.5e-4,-0.0666 -0.0522,-0.14651 0.001,-0.21265 -0.0265,-0.0133 -0.013,-0.0532 -0.0127,-0.0798 -0.0265,-0.0932 -0.0261,-0.15945 -0.0388,-0.23936 -0.0261,-0.11976 0.001,-0.23911 -0.0116,-0.35884 3.5e-4,-0.0398 -0.0131,-0.10654 7.1e-4,-0.14623 0.0265,-0.0397 -0.0395,-0.0931 -0.0261,-0.13296 0.0134,-0.0398 -0.0261,-0.0799 -0.0127,-0.11963 0.0134,-0.0265 0.0268,-0.0398 0.0268,-0.0663 3.6e-4,-0.0132 -0.0265,-0.0135 -0.0265,-0.0268 0.0138,-0.093 0.001,-0.17264 0.0279,-0.26581 3.6e-4,-0.0265 -0.013,-0.0531 -0.0261,-0.0797 -0.0261,-0.0799 0.0406,-0.14605 0.0275,-0.22571 -0.013,-0.0267 0.0215,-0.0671 0.0141,-0.10625 -0.0261,-0.13297 -0.0787,-0.2927 0.0413,-0.38517 -0.0794,-4.2e-4 -0.0127,-0.0931 -0.0388,-0.1331 -0.0134,-0.0398 -0.0131,-0.1064 0.0137,-0.14609 0.0134,-0.0266 -0.0264,-0.0533 -0.013,-0.0797 0.0134,-0.0134 3.5e-4,-0.0399 0.0268,-0.0398 -0.0265,-0.0665 0.0272,-0.14591 0.001,-0.21262 0,-0.0266 3.5e-4,-0.0398 3.5e-4,-0.0666 0.0131,-0.0132 0.0399,-0.0263 0.0268,-0.0531 -0.0134,-0.0131 -0.0131,-0.0265 -0.0134,-0.0397 3.5e-4,-0.0133 0.0268,-0.0132 0.0268,-0.0265 -0.013,-0.0399 -0.0127,-0.0799 0.0272,-0.10622 0,0 0.0265,0.0135 0.0265,0.0267 -0.0134,0.0664 -0.0138,0.14576 -0.0145,0.21233 -3.5e-4,0.13314 -0.0409,0.26582 -0.002,0.41205 0.0131,0.0398 -0.0137,0.0798 -0.0137,0.11945 -0.0138,0.0929 -0.0141,0.17268 -0.0145,0.26571 -3.5e-4,0.0266 -3.5e-4,0.0665 -7e-4,0.10636 -0.0134,0.0529 -0.0138,0.10612 -0.0138,0.15946 -3.5e-4,0.0532 0.0123,0.11973 -0.0141,0.18588 -0.0272,0.10625 -0.001,0.22602 -0.002,0.33224 -3.5e-4,0.0266 0.0261,0.0532 0.0131,0.0795 -0.0141,0.11977 0.012,0.22627 -0.002,0.34576 -0.0138,0.0929 0.0123,0.18605 0.025,0.27904 0.0265,0.11977 0.0258,0.23922 -0.001,0.35885 -3.5e-4,0.0134 0.013,0.04 -0.0138,0.0397 0.0399,0.0533 0.0395,0.14636 0.0127,0.21276 -3.5e-4,0.0132 0.0265,0.0398 0.0261,0.0531 0.0258,0.17297 0.0116,0.33225 0.0374,0.50532 0,0.0132 -0.013,0.0131 -0.0265,0.0131 z m 5.92561,-16.9273 c 0.1337,-0.18521 0.32032,-0.3041 0.41416,-0.48966 0.0134,-0.0261 -0.0529,-0.0399 -0.0529,-0.0667 -0.0127,-0.0667 0.0406,-0.1591 0.12065,-0.14534 0.0131,0 0.0127,0.013 0.0127,0.0265 -0.0134,0.0265 -0.0533,0.0265 -0.0667,0.0529 0,0.0399 0.0533,0.0536 0.0529,0.0399 0.0272,-0.0663 0.0935,-0.079 0.12029,-0.13229 0.0138,-0.0399 0.0536,-0.0663 0.067,-0.0928 0,-0.0265 -0.0663,-0.0134 -0.0533,-0.0399 3.5e-4,-0.0402 0.0536,-0.0265 0.0935,-0.0261 0.0265,-0.0131 0.0134,-0.0533 -0.013,-0.0667 0.0533,-0.066 0.11959,-0.0127 0.1598,-0.0258 0.10619,-0.0526 0.20003,-0.1584 0.2667,-0.26458 0.0134,-0.0399 -0.0264,-0.0533 -0.0529,-0.0667 0.0533,-0.0395 0.0804,-0.0924 0.1337,-0.11888 0.0265,0 0.0529,0.0268 0.0794,0.0138 0.0533,-0.0265 0.11995,-0.0529 0.13335,-0.0924 0.0268,-0.0663 0.0935,-0.0924 0.10725,-0.1457 0,-0.0134 0,-0.0265 -0.013,-0.0399 0.0134,-0.0399 0.10618,-0.0526 0.0794,3.6e-4 -0.0134,0.0663 -0.10689,0.13229 -0.0804,0.19896 0.0131,0.0265 0.0395,0.0533 0.0261,0.0797 -0.13335,0.11924 -0.21413,0.27799 -0.40005,0.31715 -0.0268,0.0131 -0.0533,0.0395 -0.0536,0.066 0.0127,0.11994 -0.0935,0.0794 -0.17286,0.10548 0.013,3.5e-4 0.013,0.0134 0.013,0.0268 -0.0268,0.0529 -0.0801,0.0794 -0.0938,0.1457 -0.0137,0.0663 -0.0935,0.10583 -0.1337,0.18521 -0.0134,0.0402 0.0529,0.0536 0.0392,0.0935 -0.0402,0.0794 -0.10654,0.11889 -0.18662,0.14535 -0.013,0 -0.0395,-0.0268 -0.0529,-0.0268 -0.0533,0.0395 -0.0801,0.10583 -0.12029,0.1718 -0.0138,0.0402 -0.0801,0.0399 -0.1069,0.0928 -0.0134,0.0134 -0.0399,0.013 -0.0533,0.0261 -0.0402,0.0797 -0.14676,0.17216 -0.22649,0.145 -0.0399,0 -0.008,-0.0625 0.0138,-0.0928 z m -2.56505,3.18593 c 0.0991,0.004 0.13229,-0.12065 0.17816,-0.20285 0.031,-0.0684 0.12982,-0.1016 0.16333,-0.18908 0.0159,-0.0416 0.0173,-0.0836 0.0335,-0.12454 0.0155,-0.0413 0.0586,-0.0536 0.0748,-0.10936 0.0155,-0.0268 0.0169,-0.0691 0.0325,-0.0963 0.03,-0.0409 0.10054,-0.0381 0.11677,-0.0794 0.002,-0.0561 -0.0226,-0.15487 0.0342,-0.15275 0.11324,0.005 0.17251,-0.0628 0.23177,-0.13053 0.0141,7.1e-4 0.0434,-0.0123 0.0713,-0.0109 0.0864,-0.0247 0.0335,-0.12453 0.0497,-0.18027 10e-4,-0.0279 0.0448,-0.054 0.0741,-0.0808 0.0155,-0.0275 -0.0257,-0.0709 -0.0109,-0.0843 0.11642,-0.0653 0.12101,-0.1912 0.11148,-0.30338 3.5e-4,-0.0141 0.0293,-0.0272 0.0441,-0.0402 0.0572,-0.0116 0.12488,0.0607 0.18274,0.0353 0.072,-0.025 0.0187,-0.11113 0.0494,-0.16616 0.0451,-0.0681 0.0903,-0.13653 0.17639,-0.16087 0.0579,-0.0257 0.0607,-0.10936 0.0914,-0.16404 0.03,-0.0409 0.0868,-0.0384 0.10265,-0.0801 10e-4,-0.042 0.031,-0.0684 0.0462,-0.096 0.0448,-0.0543 0.14358,-0.0504 0.15945,-0.0917 0.0307,-0.0547 0.0878,-0.0663 0.13124,-0.0928 0.0148,-0.0131 -0.0265,-0.043 -0.0258,-0.0568 0.0314,-0.0825 0.10513,-0.14957 0.1644,-0.21731 0.0141,3.6e-4 0.0282,0.001 0.0423,0.002 0.0416,0.0296 0.0533,0.0861 0.0378,0.12735 -0.0314,0.0688 -0.0709,-0.003 -0.12771,-0.005 -0.0141,-7.1e-4 -0.0293,0.0268 -0.0303,0.0547 0.0123,0.0427 0.0981,0.0318 0.0681,0.0727 -0.0741,0.0808 -0.18944,0.13229 -0.20743,0.22966 -0.0176,0.0833 -0.10372,0.1076 -0.14852,0.16193 -0.03,0.0409 -0.0455,0.0822 -0.0621,0.13723 -0.03,0.0409 -0.0741,0.0811 -0.13159,0.10689 -0.0589,0.0536 -0.0907,0.13617 -0.13652,0.21837 -0.0293,0.0268 -0.0444,0.0543 -0.0875,0.0667 -0.0148,0.0131 0.0268,0.043 0.012,0.0561 -0.0296,0.0268 -0.0861,0.0247 -0.0875,0.0529 -0.0307,0.0684 -0.0607,0.10901 -0.10548,0.16334 -0.10442,0.13582 -0.236,0.2286 -0.3122,0.36548 -0.0303,0.0547 -0.0607,0.10936 -0.078,0.17885 -0.0176,0.0833 -0.11747,0.10725 -0.16333,0.18945 -0.0469,0.11006 -0.13477,0.17638 -0.19544,0.28575 -0.0307,0.055 -0.11607,0.0656 -0.14641,0.10618 -0.10371,0.12206 -0.12417,0.27482 -0.19967,0.39793 -0.0159,0.0413 -0.0183,0.0974 -0.0342,0.13865 -0.0155,0.0413 -0.0716,0.025 -0.0988,-0.004 0.0141,7.1e-4 0.0289,-0.0127 0.0152,-0.0275 -0.0275,-0.0148 -0.055,-0.0441 -0.0681,-0.0723 7e-4,-0.0141 0.001,-0.0279 0.0152,-0.0275 -0.0275,-0.0152 -0.0836,-0.0314 -0.0822,-0.0734 7.1e-4,-0.0138 0.0155,-0.0275 0.0296,-0.0268 z m -1.04034,2.03165 c 0.0286,-0.0416 0.0399,0.002 0.10619,0.005 0.0134,3.5e-4 0.0268,0.001 0.0399,0.001 0.0141,-0.0138 0.003,-0.0572 0.003,-0.0713 -0.0258,-0.0152 -0.0681,0.0399 -0.0663,-0.003 0.004,-0.0716 0.0459,-0.127 0.12418,-0.0952 0.0134,7.1e-4 0.0275,-0.013 0.0282,-0.0272 0.002,-0.043 -0.0374,-0.0589 -0.0624,-0.0885 7.1e-4,-0.0145 10e-4,-0.0286 0.0145,-0.0282 0.0529,0.002 0.10407,0.0476 0.13335,-0.008 0.0293,-0.0561 -0.0349,-0.10195 -0.0462,-0.14534 -0.024,-0.0582 0.0317,-0.11324 0.0476,-0.17004 0.0279,-0.0776 0.0815,0.0215 0.14217,0.0198 -0.007,-0.002 -0.0148,-0.004 -0.009,-0.0141 0.0145,-0.0279 0.0416,-0.0413 0.0423,-0.055 -0.0106,-0.0579 -0.13124,-0.0346 -0.1016,-0.10477 0.0293,-0.0565 0.0593,-0.12665 0.11253,-0.12418 0.0265,7e-4 0.0635,0.06 0.0921,0.0183 0.0445,-0.0988 0.10372,-0.22507 0.20779,-0.1778 0.0649,0.0314 0.008,0.11501 -0.009,0.18627 -0.0145,0.0275 -0.055,0.0402 -0.0557,0.0547 -0.003,0.0713 -0.0318,0.11324 -0.061,0.16933 -0.043,0.0695 -0.0737,0.15452 -0.12983,0.22366 -0.0282,0.0275 -0.0176,0.085 -0.0321,0.11325 -0.0279,0.0275 -0.0699,0.0688 -0.0713,0.0974 -0.061,0.16934 -0.1076,0.31045 -0.22013,0.44909 -0.0141,0.0138 -0.003,0.0572 -0.004,0.0713 -0.0141,0.0138 -0.0279,0.0275 -0.0413,0.0272 -0.0445,0.0981 -0.0639,0.22613 -0.13476,0.3235 -0.085,0.11113 -0.079,0.26917 -0.17674,0.36513 -0.0272,0.013 -0.10618,-0.005 -0.0903,-0.0614 0.0145,-0.0279 0.0677,-0.0257 0.0818,-0.0392 0.0289,-0.0561 0.0445,-0.0988 0.0737,-0.15451 0.0166,-0.0709 -0.007,-0.14358 0.009,-0.20038 0.002,-0.0427 0.0825,-0.054 0.0843,-0.0967 0.0314,-0.0988 0.0494,-0.19826 0.0406,-0.29916 -0.0113,-0.0434 -0.14675,0.008 -0.1023,-0.0903 0.0148,-0.0279 0.0289,-0.0416 0.03,-0.0702 z m -1.7272,4.23157 c 0,0.013 -0.0268,0.013 -0.0268,0.0265 -3.5e-4,0.0533 0.013,0.11959 -0.0141,0.15945 -0.0134,0.0399 -0.0402,0.0797 -0.0536,0.11924 -0.0808,0.23883 -0.0554,0.49142 -0.18945,0.71649 -0.0134,0.0134 -0.0261,0 -0.0261,-0.013 0.0265,-0.0797 3.5e-4,-0.133 0.0141,-0.21272 0.0134,-0.0265 0.0268,-0.0663 0.0268,-0.0928 0.0138,-0.0399 -0.0258,-0.10653 7.1e-4,-0.13299 0.0402,-0.066 0.0801,-0.10478 0.0808,-0.18556 0,-0.0797 0.0801,-0.11924 0.0804,-0.18592 3.5e-4,-0.0533 -0.0261,-0.11959 -0.0123,-0.17251 0.0268,-0.0533 0.0406,-0.11959 0.10654,-0.10583 0.0268,0 0.013,0.0533 0.013,0.0797 z m 0.71473,-2.28212 c -0.054,0.21237 -0.12136,0.41134 -0.20214,0.6103 -0.0134,0.0399 0.013,0.0797 -3.6e-4,0.11995 -0.0536,0.079 -0.054,0.15875 -0.0811,0.25153 -0.0268,0.10619 -0.0804,0.19897 -0.12065,0.30515 -0.0406,0.10619 -0.0808,0.21237 -0.10831,0.33161 -0.0134,0.0667 -0.0402,0.133 -0.067,0.19932 -0.0138,0.0265 -0.0272,0.066 -0.0272,0.10584 -0.0134,0.0268 -0.0399,0.0268 -0.0536,0.0529 -0.0134,0.0399 0.013,0.0931 -3.5e-4,0.133 -0.0134,0.0265 -0.0533,0.0131 -0.0667,0.0529 -0.0134,0.0134 -0.0268,0 -0.0268,-0.0134 0.001,-0.1464 0.1076,-0.27869 0.0688,-0.43815 -0.013,-0.0265 0.0533,-0.0265 0.0399,-0.0529 3.5e-4,-0.0667 0.054,-0.10583 0.0804,-0.15945 0.0272,-0.0526 0.0275,-0.11924 0.0543,-0.17216 -0.0268,0 -0.0134,-0.0268 -0.0134,-0.0399 -0.0261,-0.0931 0.0409,-0.17251 0.121,-0.23883 0.0265,-0.0261 -0.0265,-0.0667 -0.0529,-0.0931 -0.0131,-0.0265 0.0268,-0.0265 0.0268,-0.0399 -0.013,-0.0529 7e-4,-0.10618 0.0272,-0.14605 0.0134,-0.0399 3.6e-4,-0.0797 0.0138,-0.11959 0.0409,-0.13229 0.1076,-0.25188 0.14817,-0.39758 0.0134,-0.0265 0.0402,-0.0529 0.0402,-0.0663 7.1e-4,-0.11959 0.0674,-0.21273 0.12101,-0.31856 0.0134,-0.0395 7e-4,-0.0928 0.0406,-0.11924 0.0134,0 0.0264,0 0.0399,3.5e-4 0.0395,0.0268 0.0392,0.0797 0.0392,0.11959 0.0131,0.0399 -0.0268,0.0928 -0.0406,0.13265 z m 0.7493,-1.0728 c 0.013,0.0134 0.0145,0.0162 0.0265,0.0399 0.013,0.0268 0.0663,0.0272 0.0529,0.0536 -3.5e-4,0.0533 -0.10689,0.10583 -0.16016,0.0787 0.0402,-0.0529 0.0141,-0.13229 0.0808,-0.17216 z m 3.65478,-3.37432 c -0.11677,0.11007 -0.20144,0.23707 -0.22225,0.39829 -0.0166,0.0159 -0.0497,0.031 -0.0667,0.0632 -0.036,0.11218 -0.11888,0.19085 -0.12276,0.30409 -0.0173,0.0483 -0.0825,0.0624 -0.0998,0.0942 -0.0691,0.14394 -0.16933,0.25435 -0.2219,0.38241 -0.0688,0.12771 -0.0755,0.0441 -0.12735,0.15593 -0.0688,0.14393 -0.23495,0.26846 -0.28751,0.41275 -0.0533,0.16051 -0.12312,0.32032 -0.25577,0.43004 0.0162,7e-4 0.0155,0.0166 0.0152,0.0332 -0.067,0.0787 -0.0857,0.15945 -0.121,0.25541 -0.0169,0.0318 -0.0667,0.0628 -0.0836,0.0949 -7.1e-4,0.0162 -0.002,0.0487 -0.002,0.0649 -0.0998,0.0938 -0.13617,0.2226 -0.18767,0.3182 -0.0353,0.0963 -0.11889,0.19121 -0.13829,0.28752 -0.0346,0.0801 -0.085,0.14358 -0.11995,0.22366 -3.5e-4,0.0162 0.0148,0.0487 -0.002,0.0646 -0.0198,0.11289 -0.16792,0.18944 -0.18697,0.28645 -0.019,0.0963 -0.16652,0.36619 -0.10443,0.46532 -0.11606,0.0935 -0.4011,0.21625 -0.27657,0.39828 -3.6e-4,0.0162 -0.0176,0.048 -0.0346,0.0635 -0.0332,0.0314 -0.0981,0.0296 -0.11571,0.078 -0.0512,0.0956 -0.15028,0.15733 -0.15381,0.27093 0.0159,0.0166 0.0152,0.0328 0.0148,0.0487 -0.0335,0.0317 -0.11254,0.002 -0.1136,0.0349 -0.003,0.11324 0.0741,0.32984 0.0709,0.44309 -0.001,0.0328 -0.0187,0.0808 -0.0198,0.11324 -0.0342,0.0639 -0.0998,0.0942 -0.13406,0.15804 -0.0173,0.0317 0.0138,0.0811 -0.004,0.11324 -0.11818,0.15875 -0.0917,0.35384 -0.1778,0.52952 -0.0346,0.0801 -0.19896,0.15699 -0.20249,0.27058 -3.5e-4,0.0162 -0.0176,0.048 -0.0183,0.0804 -0.0173,0.0321 -0.0497,0.031 -0.0667,0.0628 -0.0187,0.0804 0.11395,0.16404 0.0794,0.24412 -0.0173,0.0321 -0.0663,0.0469 -0.0667,0.0628 -0.003,0.097 -0.0215,0.1778 -0.072,0.2413 -0.0677,0.0952 -0.0878,0.22401 -0.17109,0.30268 0.0769,0.13194 -0.008,0.2914 -0.0286,0.42051 -0.002,0.0808 0.0755,0.17957 0.0734,0.26035 -3.5e-4,0.0162 -0.0335,0.0314 -0.0501,0.0473 -0.001,0.0483 -0.0187,0.0804 -0.036,0.11218 -0.0169,0.0321 0.0141,0.0815 -0.003,0.11359 -0.0857,0.15911 -0.0289,0.39829 -0.018,0.57679 -7e-4,0.0166 -0.0339,0.048 -0.0508,0.0635 -0.019,0.11289 -0.0233,0.2424 -0.0427,0.35529 -0.0201,0.12897 -0.0878,0.24045 -0.0921,0.36999 -3.5e-4,0.0161 -0.0332,0.0313 -0.0501,0.0471 -0.0692,0.16013 0.0557,0.38929 -0.0303,0.54875 -3.5e-4,0.0162 0.031,0.0497 0.0307,0.0657 -0.0187,0.0806 -0.0695,0.16027 -0.0882,0.24059 -0.0363,0.12859 -0.007,0.24296 -0.0272,0.3718 -0.0388,0.20962 0.11501,0.31379 0.0603,0.52281 -3.6e-4,0.0162 0.0314,0.0332 0.0314,0.0332 -0.0353,0.0962 -0.0219,0.19388 -0.0402,0.27421 -0.024,0.25866 0.12206,0.51058 0.0818,0.76853 -0.001,0.0325 -0.019,0.0969 -0.0201,0.12929 -0.006,0.19413 0.0769,0.45529 0.055,0.64904 0,0 -0.001,0.0324 -0.0176,0.0479 -0.019,0.0968 0.0674,0.21072 -0.031,0.25661 -0.049,0.0146 -0.0466,-0.0663 -0.0621,-0.0991 -0.0307,-0.0496 -0.0282,-0.13064 0.0212,-0.16165 -0.0159,-0.0166 -0.12206,-0.0176 -0.13758,-0.0346 -0.0141,-0.0653 0.0201,-0.12901 0.006,-0.19403 -0.0434,-0.1797 -0.0134,-0.40488 -0.0406,-0.58388 0.003,-0.0973 -0.01,-0.21099 -0.007,-0.30825 7e-4,-0.0163 0.0328,-0.0152 0.0335,-0.0314 7.1e-4,-0.0324 -0.0145,-0.0652 -0.03,-0.0817 0.0667,-0.063 -0.13335,-0.13822 -0.11466,-0.21858 0.0166,-0.0158 0.0494,-0.0311 0.0497,-0.0471 -0.0141,-0.0653 -0.0123,-0.13021 -0.0102,-0.19484 0.001,-0.0324 0.002,-0.0645 0.0512,-0.0958 0.0169,-0.0156 -0.0303,-0.0657 -0.0293,-0.098 0.0215,-0.17776 -0.23072,-0.31584 -0.17675,-0.49251 0.0176,-0.0482 0.11783,-0.0789 0.11924,-0.12746 0.002,-0.0808 0.0208,-0.1614 0.0402,-0.25784 3.5e-4,-0.0164 -0.0152,-0.0331 -0.0148,-0.0494 0.0169,-0.0156 0.0176,-0.0479 0.0176,-0.0479 0.0205,-0.14524 -0.0885,-0.29422 -0.0356,-0.43861 0.0526,-0.12788 -0.0741,-0.30882 -0.0215,-0.43699 0.0173,-0.0481 0.0194,-0.11285 0.037,-0.16097 0.0346,-0.08 0.0215,-0.17748 0.0402,-0.25809 0.0346,-0.0799 0.0699,-0.17611 0.0885,-0.25661 0.0173,-0.048 0.003,-0.11324 0.0208,-0.16157 0.0339,-0.0476 0.11536,-0.061 0.133,-0.10936 0.0173,-0.0483 -0.0907,-0.19156 -0.10548,-0.2406 -0.0148,-0.049 -0.0127,-0.11395 0.005,-0.16192 0.0339,-0.0476 0.11536,-0.0614 0.13335,-0.12595 0.0176,-0.048 -0.0138,-0.0811 -0.0286,-0.13017 -0.0289,-0.1143 -0.0409,-0.25929 -0.0374,-0.37289 -0.0145,-0.0653 0.0356,-0.11218 0.0381,-0.19297 3.5e-4,-0.0166 0.0335,-0.0476 0.0505,-0.0635 0.0205,-0.14499 0.0723,-0.25717 0.0931,-0.40216 0.0166,-0.0321 0.0497,-0.0473 0.0501,-0.0635 0.0198,-0.11289 0.0706,-0.19227 0.09,-0.30516 0.0378,-0.17744 0.13265,-0.28786 0.21908,-0.46355 0.0526,-0.14428 0.10512,-0.27234 0.12559,-0.41733 0.001,-0.0487 0.0353,-0.0963 0.0205,-0.14535 -0.0152,-0.0328 -0.0794,-0.0508 -0.0945,-0.084 -0.0155,-0.0328 0.0183,-0.0804 0.0349,-0.0963 0.0674,-0.0787 0.0543,-0.19261 0.13687,-0.23883 0.0497,-0.031 0.12947,0.004 0.16369,-0.06 0.10407,-0.22366 0.005,-0.32879 0.10936,-0.5521 0.0169,-0.0321 0.18415,-0.17815 0.20144,-0.20955 0.0183,-0.0808 0.0367,-0.14499 0.0547,-0.20919 0.0342,-0.0639 0.10407,-0.28469 0.13829,-0.34855 0.0515,-0.096 0.096,-0.0691 0.13159,-0.1651 0.0349,-0.0963 0.27375,-0.36159 0.35701,-0.44026 7e-4,-0.0159 0.002,-0.0646 0.003,-0.0808 -0.078,-0.0981 0.042,-0.26388 0.0614,-0.37677 10e-4,-0.0325 0.13723,-0.1598 0.15381,-0.17533 0.0349,-0.0801 0.0187,-0.06 0.0699,-0.13934 0.002,-0.0462 0.13512,-0.21414 0.139,-0.27905 0.002,-0.0427 0.066,-0.0303 0.0663,-0.0466 0.003,-0.11324 0.10301,-0.1912 0.12241,-0.30409 0.003,-0.0974 0.10196,-0.15911 0.15311,-0.23848 -0.0159,-0.0169 -0.0155,-0.0332 -0.0152,-0.049 0.0166,-0.0159 0.0335,-0.0317 0.0504,-0.0473 0.018,-0.0642 0.0677,-0.11148 0.1023,-0.17533 0.001,-0.0321 0.018,-0.0642 0.0183,-0.0804 0.0501,-0.0469 0.0226,0.1083 0.0402,0.0607 0.0346,-0.0801 -0.0596,-0.18027 -0.0243,-0.27658 0.0512,-0.0794 0.0713,0.0857 0.10619,0.006 0.0857,-0.15945 0.21978,-0.30127 0.28963,-0.47766 0.0166,-0.0155 0.0342,-0.0639 0.0825,-0.0462 3.5e-4,-0.0162 7.1e-4,-0.0325 0.001,-0.0487 0.0501,-0.0469 0.0677,-0.11112 0.10231,-0.17497 0.0332,-0.0317 0.0508,-0.0797 0.10054,-0.11042 3.5e-4,-0.0162 0.001,-0.0325 0.001,-0.0487 0.0339,-0.0476 0.084,-0.0945 0.13335,-0.12559 3.5e-4,-0.0162 0.001,-0.0325 -0.0148,-0.049 0.0501,-0.0473 0.11677,-0.11007 0.13441,-0.1584 0.0692,-0.14358 0.16933,-0.254 0.25435,-0.38135 0.0508,-0.0794 0.11818,-0.1584 0.13759,-0.27094 0.0176,-0.0483 0.0988,-0.0459 0.13229,-0.0938 0.0353,-0.096 0.10301,-0.19121 0.18415,-0.18874 0.0487,0.001 -0.002,0.0811 -0.0198,0.11289 -0.0829,0.0621 -0.10124,0.14252 -0.13617,0.2226 -0.0166,0.0159 -0.0335,0.0318 -0.0501,0.0473 -0.019,0.0967 -0.10125,0.14288 -0.13618,0.22296 -7e-4,0.0321 -0.002,0.0646 -0.0187,0.0804 v 0"
       style="fill:#308b7d;fill-opacity:1;fill-rule:nonzero;stroke:none;stroke-width:0.0352778"
       id="path909" />
    <path
       d="m 190.93551,136.76435 c 0.012,0.002 0.0381,-0.007 0.0487,0.006 0.0836,0.0233 0.16686,0.0469 0.25259,0.0579 0.012,0.002 0.0332,0.0293 0.0451,0.0307 0.0275,-0.0208 0.0505,-0.006 0.0625,-0.004 0.0381,-0.007 0.0695,0.0339 0.11888,0.0399 0.012,0.002 0.0191,0.0399 0.0318,0.0416 0.036,0.005 0.0621,-0.004 0.0988,3.5e-4 0.10619,0.0388 0.18662,0.0864 0.29598,0.1009 0.0363,0.005 0.0804,0.0476 0.11571,0.0646 0.024,0.004 0.061,0.008 0.0847,0.0113 0.0123,0.002 0.009,0.0258 0.0215,0.0275 0.0762,-0.0148 0.13229,0.0296 0.19015,0.0617 0.091,0.0617 0.21695,0.0409 0.30338,0.13899 0.0229,0.0155 0.061,0.008 0.0836,0.0236 0.40534,0.21378 0.81174,0.38488 1.18639,0.64417 0.38277,0.19861 0.68404,0.50447 1.04952,0.73801 0.012,0.002 0.0317,0.0413 0.055,0.0568 0.59867,0.43744 1.11654,0.92604 1.5868,1.49542 0.0328,0.0293 0.0526,0.0688 0.11183,0.0889 0.0243,0.003 0.018,0.0519 0.0406,0.0672 0.0247,0.003 0.0473,0.0186 0.0699,0.034 0.22083,0.20228 0.33831,0.44055 0.51964,0.66227 0.26952,0.30787 0.43497,0.65126 0.66251,0.99053 0.0921,0.14841 0.1584,0.30565 0.23637,0.46429 0.17003,0.40594 0.32914,0.79827 0.47272,1.21334 0.009,0.026 0.004,0.0625 0.0116,0.10048 0.0448,0.12968 0.0931,0.23509 0.11183,0.37383 0.007,0.0382 0.0409,0.0671 0.0603,0.10697 0.19296,0.79276 0.27693,1.57123 0.29174,2.40287 0.007,0.32286 -0.01,0.64259 -0.0631,0.95734 -0.0561,0.42594 -0.12277,0.83809 -0.25118,1.2544 -0.14429,0.43932 -0.27341,0.85563 -0.47696,1.27469 -0.0504,0.10503 -0.10336,0.22173 -0.20108,0.30787 -0.0155,0.0229 -0.0325,0.0577 -0.025,0.0958 -0.0381,0.007 -0.0459,0.0682 -0.0914,0.0376 -0.0215,-0.0274 -0.001,-0.0867 0.0145,-0.10943 0.0395,-0.0197 0.0444,-0.0559 0.049,-0.0927 0.002,-0.0121 0.0261,-0.009 0.0275,-0.0209 0.006,-0.0489 0.013,-0.0976 -0.007,-0.1374 0.012,0.002 0.0363,0.005 0.0381,-0.007 0.0233,-0.0834 0.09,-0.12414 0.11253,-0.19568 0.007,-0.0608 -0.0194,-0.13861 0.0388,-0.20518 0.004,-0.0243 0.008,-0.0611 0.0113,-0.0853 0.0113,-0.085 0.0727,-0.17611 0.0473,-0.2661 -0.007,-0.0382 -0.0286,-0.0657 -0.0497,-0.0932 -0.0402,0.11853 -0.0804,0.23703 -0.12101,0.35539 -0.0134,0.0106 -0.0289,0.0334 -0.0427,0.0438 -0.0138,0.0107 0.009,0.0262 0.006,0.0504 -0.005,0.0367 -0.0335,0.0697 -0.0508,0.10474 -0.0166,0.035 0.003,0.0748 -0.002,0.11109 -0.0138,0.0107 -0.0289,0.0333 -0.043,0.0441 -0.043,0.14273 -0.0713,0.26278 -0.14993,0.38872 -0.002,0.0123 -0.0187,0.0471 0.004,0.0623 -0.0134,0.0109 -0.0257,0.009 -0.0272,0.0213 -0.0131,0.0974 -0.0607,0.17776 -0.11889,0.24433 -0.0155,0.0229 0.003,0.0747 -0.0127,0.0974 -0.0155,0.0229 -0.0307,0.0455 -0.0582,0.0665 -0.0169,0.035 -0.0236,0.0837 -0.0402,0.11868 -0.0187,0.0472 -0.06,0.0787 -0.0861,0.0879 -0.0258,0.009 -0.0335,-0.0293 -0.03,-0.0536 0.0342,-0.07 0.0885,-0.11215 0.12312,-0.1819 0.001,-0.0123 -0.0339,-0.0291 -0.0462,-0.0307 -0.0529,0.0301 -0.0625,0.10322 -0.0935,0.14855 -0.0155,0.0227 -0.0462,0.0683 -0.049,0.0926 -0.0268,0.10802 -0.0794,0.22489 -0.15416,0.32646 -0.0614,0.0909 -0.18098,0.1495 -0.25576,0.25121 -0.0155,0.0229 -0.043,0.0441 -0.0656,0.0285 -0.0215,-0.0275 -0.0166,-0.0639 -0.001,-0.0867 0.0141,-0.0106 0.0293,-0.0333 0.043,-0.0441 -0.0166,0.0124 -0.0166,-0.0336 -0.0166,-0.049 0.0614,-0.10706 0.0769,-0.21484 0.12312,-0.32219 0.0307,-0.0612 0.0769,-0.10749 0.13828,-0.15324 0.0917,-0.13836 0.13759,-0.30703 0.0762,-0.4451 -0.0152,-0.0309 -0.0917,0.0462 -0.12241,0.092 -0.0307,0.0921 -0.0307,0.2147 -0.0769,0.30691 -0.12277,0.21484 -0.2914,0.38365 -0.38347,0.59849 -0.0769,0.19939 -0.19932,0.35288 -0.26071,0.55231 0,0.046 -0.0155,0.0922 -0.0307,0.13808 -0.0307,0.0461 -0.0614,0.10763 -0.12312,0.12276 0,-0.0766 0.0155,-0.16866 -0.0152,-0.24557 -0.0155,-0.0459 -0.10724,-0.0153 -0.12276,0.0307 -0.0152,0.0613 0.0155,0.1228 0,0.16884 -0.0152,0.0309 -0.0921,0.046 -0.0921,0.0766 -0.0307,0.0614 -0.0459,0.12294 -0.0921,0.15353 -0.0152,0 -0.0462,0.0155 -0.0614,0.0155 -0.0617,0.19929 -0.23001,0.35278 -0.42968,0.35278 0,-0.0307 -0.0152,-0.0767 0,-0.10735 0.1076,-0.13818 0.24553,-0.2304 0.32244,-0.38375 0.10724,-0.18411 0.21484,-0.36837 0.29139,-0.58321 0,-0.0306 0.0155,-0.0613 0,-0.0765 -0.0152,0 -0.0459,0 -0.0614,0 -0.0307,0.0615 -0.0459,0.13807 -0.0921,0.19942 -0.0307,0.0306 -0.0617,0.0613 -0.0924,0.0919 -0.061,0.10777 -0.13759,0.19967 -0.19897,0.32247 -0.0462,0.0765 -0.15381,0.10735 -0.19967,0.19925 -0.0307,0.0463 -0.0307,0.10749 -0.0614,0.15353 -0.0921,0.10749 -0.13793,0.23026 -0.21484,0.33761 -0.0459,0.0462 -0.061,0.12266 -0.13793,0.12266 0,-0.0919 0.0921,-0.13794 0.12241,-0.19928 0.0155,-0.0307 -0.0152,-0.0768 0,-0.10749 0.031,-0.0615 0.0924,-0.13794 0.13829,-0.18408 0.0769,-0.0766 0.0921,-0.23016 0.13829,-0.33765 0.0765,-0.19925 0.16863,-0.36833 0.30691,-0.52186 0.0152,0 0.0307,0 0.0459,0 0.13793,-0.16852 0.23036,-0.35278 0.3683,-0.55231 0.0765,-0.10721 0.15345,-0.21484 0.21484,-0.32219 0.0307,-0.0613 0.0307,-0.12263 0.0614,-0.18398 0.0307,-0.10759 0.16863,-0.16894 0.19932,-0.30688 0,-0.0613 0.0152,-0.10749 0.0462,-0.16908 0.0152,-0.0765 0.0614,-0.15325 0.0921,-0.22984 0.0614,-0.10749 0.0307,-0.24543 0.0769,-0.36837 0,0 0.0307,0 0.0455,0 0.0769,-0.12277 0.18451,-0.24543 0.16898,-0.39892 -0.15345,-0.0462 -0.19932,0.12277 -0.24518,0.21481 -0.16933,0.38354 -0.27657,0.78232 -0.50659,1.15069 -0.19932,0.32244 -0.35277,0.64449 -0.59831,0.93623 -0.12276,0.13794 -0.24553,0.27616 -0.3683,0.42951 -0.0921,0.13811 -0.16898,0.29147 -0.26105,0.42968 -0.15346,0.18412 -0.30657,0.33761 -0.46038,0.52173 -0.0459,0.0766 -0.0765,0.15353 -0.12276,0.21484 -0.19932,0.19928 -0.3683,0.41409 -0.58315,0.5982 -0.0152,0 -0.0614,0.0309 -0.0614,0.0156 -0.0307,-0.0921 0.0155,-0.18426 0.0307,-0.29175 0.0155,-0.0306 0.0307,-0.046 0.0617,-0.0613 0.0769,-0.0306 0.12277,0.0769 0.13829,0.0461 0.1531,-0.16895 0.35278,-0.29171 0.47519,-0.49114 0.0462,-0.0767 0.0307,-0.18408 0.0614,-0.26084 0.0307,-0.0613 0.0921,-0.092 0.16898,-0.092 0.0307,0 0.0152,-0.0308 0.0307,-0.0459 0.0152,-0.10749 0,-0.23043 0.0459,-0.33764 0.0462,-0.092 0,-0.19953 0.0307,-0.30688 0.0155,-0.092 0.12276,-0.10763 0.21519,-0.13836 0.0455,-0.0306 0.0917,-0.0765 0.10725,-0.12249 0.0152,-0.0768 0.0152,-0.1688 0.0765,-0.24571 0.15346,-0.24542 0.32244,-0.47543 0.4452,-0.72114 0.15311,-0.33733 0.23002,-0.69053 0.399,-1.02814 0.0459,-0.0765 0.0917,-0.15325 0.13793,-0.23001 0.0152,-0.046 0,-0.092 0,-0.13822 -0.031,0.0154 -0.0769,-0.0307 -0.10724,0.0154 -0.0921,0.16867 -0.16898,0.33761 -0.24589,0.50627 -0.0307,0.0614 -0.0462,0.12281 -0.0769,0.16898 -0.15311,0.29143 -0.30657,0.56759 -0.50589,0.82861 0.0152,-0.0462 -0.0155,-0.10749 0.0152,-0.15353 0.23037,-0.4451 0.55245,-0.82846 0.69074,-1.33491 0.0765,-0.29143 0.21449,-0.55245 0.2914,-0.85947 0.0307,-0.0919 0.0921,-0.16853 0.12276,-0.2606 0.0155,-0.0615 0,-0.13833 -0.0307,-0.19967 -0.0152,-0.0153 -0.0459,0.0156 -0.0614,0.0307 -0.0152,0.0306 -0.0152,0.0919 -0.0307,0.12281 -0.12312,0.19939 -0.19932,0.39892 -0.35278,0.59848 -0.0924,0.15336 -0.15346,0.30688 -0.19967,0.46038 -0.0614,0.18411 -0.21485,0.27619 -0.29175,0.46027 -0.0152,0.0614 -0.10725,0.0922 -0.13794,0.1687 0,0.0306 0,0.0614 0,0.0767 -0.10724,0.19956 -0.2607,0.36837 -0.3683,0.55245 -0.12276,0.2147 -0.29139,0.36822 -0.42968,0.56776 -0.0765,0.10749 -0.0765,0.23015 -0.10725,0.35291 -0.0303,0.10735 -0.0921,0.21485 -0.15345,0.30689 -0.0614,0.0765 -0.12277,0.19942 -0.23001,0.18425 0,0 0.001,-0.0391 -0.01,-0.0406 -0.012,-0.002 -0.007,-0.038 -0.006,-0.0503 0.0564,-0.0543 0.10265,-0.12267 0.13476,-0.18038 0.0663,-0.12749 0.072,-0.26268 0.17462,-0.38544 0.0568,-0.0544 0.0695,-0.15202 0.11536,-0.22021 0.0476,-0.0806 0.0953,-0.16097 0.16545,-0.22602 0.0141,-0.0104 -0.0208,-0.0274 -0.007,-0.038 0.0702,-0.0649 0.10407,-0.13505 0.17286,-0.18782 0.001,-0.0123 -0.007,-0.038 0.006,-0.0489 0.0388,-0.10622 0.12453,-0.19389 0.18733,-0.29697 0.004,-0.0247 0.0187,-0.0471 0.0466,-0.0682 0.003,-0.0243 0.0183,-0.0471 0.0215,-0.0716 0.0138,-0.0104 0.0289,-0.0333 0.0427,-0.0438 0.0173,-0.0351 0.0219,-0.0715 0.0388,-0.10622 0.0138,-0.0109 0.0399,-0.0197 0.0554,-0.0425 0.0416,-0.13077 0.11536,-0.2202 0.17992,-0.33552 0.0169,-0.0349 0.0215,-0.0716 0.0388,-0.10626 0.0272,-0.0212 0.0445,-0.0561 0.0596,-0.079 0.003,-0.0243 0.008,-0.0608 0.0113,-0.085 0.0706,-0.16401 0.15099,-0.30237 0.24483,-0.45092 0.20743,-0.35634 0.3436,-0.73477 0.52881,-1.1067 0.002,-0.0121 -0.0321,-0.0412 -0.0166,-0.0641 0.0138,-0.0105 0.0381,-0.008 0.0519,-0.0179 0.0406,-0.11849 0.0667,-0.22669 0.0829,-0.34808 -0.009,-0.0261 0.006,-0.0489 0.0215,-0.0716 -0.0102,-0.0138 -0.009,-0.0259 -0.007,-0.0381 0.0377,-0.007 0.067,-0.0409 0.0702,-0.0652 0.01,-0.0729 -0.004,-0.16126 0.0409,-0.21746 0.0289,-0.0332 3.5e-4,-0.099 0.019,-0.14622 0.0448,-0.0559 0.0296,-0.13187 0.0515,-0.20338 0.0138,-0.0106 0.0275,-0.0211 0.0413,-0.032 0.002,-0.012 -0.0194,-0.0395 -0.0176,-0.0517 0.0303,-0.23135 0.097,-0.45762 0.11536,-0.69067 l 0.004,-0.0366 c 0.0861,-0.37232 0.0607,-0.74704 -7.1e-4,-1.12653 -0.004,-0.0626 -0.008,-0.12484 -0.037,-0.19046 -0.007,-0.0383 0.01,-0.073 0.002,-0.11105 -0.14182,-0.71205 -0.47907,-1.35037 -0.99096,-1.88807 -0.012,-0.002 -0.0243,-0.003 -0.0257,0.009 -0.0321,-0.0413 -0.0621,-0.0947 -0.1076,-0.12541 -0.10124,-0.0752 -0.17709,-0.15942 -0.26634,-0.23301 -0.13476,-0.10432 -0.27305,-0.18426 -0.40781,-0.28872 -0.16793,-0.13352 -0.34467,-0.20598 -0.51753,-0.30289 -0.29915,-0.1754 -0.61771,-0.29143 -0.95532,-0.36033 -0.0247,-0.003 -0.0734,-0.0221 -0.0702,-0.0465 -0.14605,-0.0192 -0.28681,-0.0871 -0.43004,-0.13049 -0.23848,-0.0686 -0.46249,-0.0609 -0.70273,-0.11698 -0.14253,-0.0434 -0.29669,-0.002 -0.44133,-0.0331 -0.012,-0.002 -0.009,-0.0258 -0.0212,-0.0276 -0.14923,0.005 -0.28646,0.0121 -0.43392,0.005 -0.14923,0.005 -0.28469,-2.4e-4 -0.43392,0.005 -0.16122,0.004 -0.32279,0.007 -0.48401,0.0109 -0.12524,0.008 -0.24694,-0.008 -0.36124,0.0146 -0.1644,0.0278 -0.34714,0.004 -0.5013,0.0456 -0.28046,0.0623 -0.5528,0.0636 -0.83044,0.10181 -0.2667,0.0514 -0.50871,0.1064 -0.77717,0.17032 -0.20426,0.0476 -0.41063,0.10721 -0.61454,0.15462 -0.115,0.0223 -0.22895,0.0444 -0.33126,0.0681 -0.28363,0.0867 -0.55351,0.16274 -0.82938,0.28744 -0.0127,-0.002 -0.037,-0.005 -0.049,-0.006 -0.0519,0.0179 -0.0706,0.0649 -0.11007,0.0846 -0.0261,0.009 -0.0519,0.0179 -0.0762,0.0146 -0.0639,0.0165 -0.13123,0.0572 -0.19685,0.0859 -0.11783,0.0464 -0.22613,0.11878 -0.35595,0.16369 -0.0123,-0.002 -0.0413,0.0318 -0.067,0.0408 -0.0385,0.007 -0.0642,0.0164 -0.10372,0.0359 -0.22295,0.0945 -0.42298,0.20436 -0.64911,0.32343 -0.055,0.0422 -0.0963,0.0742 -0.15134,0.11631 -0.0261,0.009 -0.0624,0.004 -0.0885,0.0132 -0.26423,0.12622 -0.50518,0.26804 -0.74894,0.42195 -0.0684,0.0528 -0.12489,0.10721 -0.20285,0.1341 -0.22649,0.11906 -0.40499,0.25643 -0.60995,0.40304 -0.0413,0.0317 -0.1069,0.0602 -0.16193,0.10256 -0.084,0.0645 -0.16369,0.11479 -0.25682,0.16453 -0.0289,0.0332 -0.084,-0.0234 -0.13229,-0.0299 -0.0261,0.009 -0.0748,0.003 -0.066,0.0287 0.003,0.0745 -0.0596,0.0787 -0.0797,0.13822 -0.0155,0.0226 -0.025,0.0957 -0.0617,0.0909 -0.0727,-0.01 -0.006,-0.13726 -0.0811,-0.13465 -0.0363,-0.005 -0.0949,0.0619 -0.10195,0.0238 -0.0392,-0.0795 0.0434,-0.14305 0.121,-0.16989 0.0381,-0.007 -0.007,-0.038 0.008,-0.0608 0.0293,-0.0333 0.0677,-0.0406 0.0935,-0.0496 0.0381,-0.007 0.0699,0.0338 0.0907,0.0613 0.0324,-0.0577 -0.01,-0.11257 0.0451,-0.15501 0.0293,-0.0332 -7e-4,-0.0868 0.0162,-0.1217 0.0275,-0.0211 0.0536,-0.03 0.0688,-0.0531 0.001,-0.012 0.003,-0.0242 -0.009,-0.0257 -0.012,-0.002 -0.0275,0.0212 -0.0501,0.006 -0.0183,0.0473 -0.072,0.0772 -0.0801,0.13822 -0.10936,-0.0143 -0.17074,0.0766 -0.24306,0.15392 -0.0272,0.0211 -0.0473,0.0805 -0.0737,0.0894 -0.0395,0.0194 -0.0776,0.0269 -0.11748,0.0463 -0.14464,0.0678 -0.22648,0.21802 -0.38205,0.27189 -0.0243,-0.003 -0.0455,-0.0307 -0.0716,-0.0218 -0.0395,0.0196 -0.0236,0.0838 -0.0628,0.10323 0.03,0.0533 -0.037,0.0942 -0.0614,0.0909 -0.084,-0.0233 -0.18767,0.0125 -0.21978,0.0703 -0.0169,0.035 0.0254,0.09 0.0328,0.12816 0.0166,0.0641 -0.0681,0.13974 -0.13935,0.11783 -0.0106,-0.0138 -0.0318,-0.0412 -0.0575,-0.0323 -0.0261,0.009 -0.0293,0.0333 -0.043,0.044 -0.0123,-0.002 -0.0243,-0.003 -0.0349,-0.0171 -0.0565,0.0544 -0.1136,0.10887 -0.13653,0.19265 -0.0229,-0.0153 -0.0384,0.007 -0.0504,0.006 -0.043,0.0439 -0.0646,0.11536 -0.11819,0.14538 -0.0243,-0.003 -0.0487,-0.006 -0.0713,-0.0216 -0.0593,-0.0201 -0.14957,0.005 -0.16615,0.0401 -0.0497,0.0925 -0.10901,0.17142 -0.15664,0.25164 -0.0155,0.0229 -0.0691,0.053 -0.0981,0.0864 -0.002,0.0121 -0.003,0.0244 -0.005,0.0364 -0.0123,-0.002 -0.0247,-0.003 -0.0265,0.009 -0.001,0.0124 -0.005,0.0367 -0.006,0.0489 -0.0896,0.0254 -0.1778,0.19208 -0.23424,0.24666 -0.0159,0.0227 -0.0212,-0.0277 0,0 -0.18415,0.27629 -0.43145,0.63666 -0.67698,0.88222 -0.0303,0.0307 -0.0303,0.12277 -0.061,0.18412 -0.0924,0.15335 -0.21484,0.30688 -0.33761,0.46037 0,0.0307 0,0.0921 0,0.12267 -0.33761,0.21498 -0.21484,0.64449 -0.42968,0.89005 -0.0614,0.0614 -0.12277,0.15353 -0.24554,0.18412 0,-0.0306 0,-0.0922 0,-0.12277 -0.0921,0.12277 -0.15345,0.24557 -0.21484,0.3682 0,-0.12263 0,-0.27602 0,-0.39893 -0.0614,0.0307 -0.0921,0.0922 -0.15346,0.1535 -0.24553,0.39895 -0.18415,0.92068 -0.55245,1.22742 0,-0.0612 0,-0.15339 0,-0.2147 -0.18415,0.15353 -0.3683,0.33761 -0.52175,0.55231 -0.58315,0.82864 -0.64418,1.78001 -0.95145,2.70069 0,0 -0.061,0 -0.0917,0 -0.0924,-0.12277 0,-0.27616 -0.031,-0.42969 -0.0307,0.0921 -0.0614,0.24557 -0.18415,0.27616 0,-0.0919 -0.0614,-0.18408 -0.0307,-0.27616 -0.0307,0.12281 -0.061,0.30692 -0.21485,0.30692 0,-0.15339 0,-0.3375 0,-0.491 0,0.12263 -0.0303,0.24557 -0.12241,0.33761 0,-0.18411 0.0307,-0.39909 0,-0.58303 h -0.0921 c -0.0614,0.15321 -0.0921,0.33746 -0.15346,0.49099 -0.0307,0 -0.12277,0 -0.12277,0 -0.0614,-0.24557 -0.0307,-0.46027 -0.0307,-0.70598 -0.27623,-0.0306 -0.12277,0.42979 -0.3683,0.52173 -0.12277,0.0307 -0.30692,0.0307 -0.33761,-0.0919 -0.0614,-0.15349 -0.0307,-0.33761 -0.0921,-0.42979 -0.18415,-0.24542 -0.0307,0.30689 -0.21485,0.33761 -0.12276,0.0306 -0.30691,-0.0307 -0.3683,-0.15349 -0.0614,-0.12266 0,-0.30678 -0.0614,-0.42954 -0.0307,-0.0307 -0.12277,-0.12266 -0.12277,-0.0921 -0.0614,0.12266 0,0.39896 -0.21484,0.3375 -0.0614,0 -0.15346,-0.0613 -0.18415,-0.15338 0,-0.0307 0,-0.092 0,-0.12277 -0.0614,0.092 -0.1531,0.0307 -0.21484,0 -0.0614,-0.0306 -0.0307,-0.1228 -0.0307,-0.2147 -0.12277,0.0306 -0.21484,0.18411 -0.24553,0.12277 -0.0921,-0.33761 -0.0303,-0.70595 -0.0303,-1.07418 h -0.0617 c -0.0917,0.12277 -0.0307,0.39896 -0.24553,0.46027 0,-0.12266 -0.0303,-0.24543 -0.0303,-0.3375 -0.0307,-0.33761 0.15346,-0.7058 0.061,-1.07417 h -0.12242 c -0.0924,0.39895 -0.1471,0.66918 -0.36195,0.9762 -0.0921,0.18412 -0.12911,0.40474 -0.25223,0.58897 0,0 -0.0303,0 -0.061,0 0.0921,-0.42965 0.27622,-0.82861 0.27622,-1.28902 0.0307,0 0.0921,0 0.12277,0 0,-0.0307 0,-0.092 0,-0.12262 0.0303,-0.0307 0.0614,-0.0922 0.0921,-0.12281 0.0307,-0.15349 0.0614,-0.27615 0.12242,-0.42965 0.17321,-0.66752 0.72178,-1.75619 0.85266,-2.40894 0.0317,-0.15727 -0.18344,0.18242 -0.17744,0.0153 -0.30692,0.88995 -0.82833,1.71855 -1.16594,2.60851 -0.21484,0.55245 -0.46037,1.10476 -0.49106,1.68779 0,0 -0.0614,0 -0.0614,-0.0306 0,-0.1535 -0.0953,-0.86914 -0.0645,-1.02264 0.30656,-1.41167 0.77046,-2.10756 1.20015,-3.4272 0.0917,-0.27629 0.30656,-0.52186 0.3683,-0.82874 -0.15346,0.36837 -0.49142,0.61394 -0.67522,0.98199 -0.46038,0.95141 -0.85937,1.90281 -1.19698,2.91567 0,0.0613 0,0.15321 0,0.21481 0,0.0306 -0.21484,0.0768 -0.21484,0.10735 0,-0.30688 0.12277,-0.59845 0.18415,-0.90537 0.15346,-0.79802 0.3683,-1.53444 0.64453,-2.27101 0.27622,-0.64449 0.70591,-1.19669 0.98178,-1.84118 0.0307,0.0613 -0.0307,0.18426 0.0307,0.15349 0.12277,-0.0615 0.18415,-0.24553 0.30692,-0.3376 0.18415,-0.12277 0.15346,-0.39893 0.21484,-0.64435 0.0307,-0.12295 0.21484,-0.21484 0.24553,-0.33765 0.21484,-0.49113 0.74648,-0.80821 0.99201,-1.23789 0.18415,-0.2763 2.22638,-1.95789 2.47192,-2.17273 0.0395,-0.0194 0.0885,-0.0342 0.11782,-0.0677 0.0533,-0.03 0.10866,-0.0723 0.15311,-0.12841 0.0476,-0.0804 0.16193,-0.10266 0.25506,-0.1524 0.0303,-0.0159 0.25153,-0.23636 0.31291,-0.26705 0.27623,-0.15346 0.33126,-0.14747 0.60749,-0.30092 0.0614,-0.0307 0.31291,-0.25153 0.37429,-0.28223 0.24554,-0.24518 0.52176,-0.24518 0.70591,-0.55209 0.3683,0.0303 0.29528,-0.0473 0.5715,-0.32315 0.0307,0 0.31221,-0.009 0.3429,-0.009 0.33761,-0.24553 0.64453,-0.49106 0.98214,-0.73624 0.0921,-0.0307 0.21484,0.0307 0.3376,-0.0307 0.12277,-0.031 0.21485,-0.0924 0.3683,-0.12276 0.067,-0.0148 0.1323,-0.0353 0.19615,-0.0596 0.19932,-0.0744 0.38488,-0.18521 0.57115,-0.27799 0.33584,-0.13088 0.67168,-0.1591 1.01458,-0.19615 0.22084,-0.0236 0.45579,-0.24588 0.68404,-0.30621 0.26,-0.0617 0.50341,0.1016 0.75706,0.0794 0.37571,-0.0328 0.75001,-0.0437 1.13489,-0.0988 0.49988,-0.0487 0.84913,-0.0748 1.16558,-0.0829 0.48013,-0.0123 0.88476,0.0173 1.62454,0.073 0.15346,0 0.98425,0.10372 1.13771,0.13441 0.39899,0.0917 1.0742,0.24377 1.4732,0.30515 0.15345,0.0307 0.3376,0 0.46037,0.12242 m -18.9043,8.10207 c 0,-0.16524 0.21484,-0.27616 0.30691,-0.46041 0.15346,-0.33747 0.3683,-0.67525 0.67522,-0.95127 0.12277,-0.0922 0.21484,-0.15349 0.30692,-0.24557 0.7366,-0.79801 1.44251,-1.53444 2.24014,-2.271 0.0614,-0.0306 0.0921,-0.2147 0,-0.24543 -0.15346,-0.092 -0.30657,-0.0309 -0.42969,0.0921 -0.0921,0.15335 -0.24518,0.18407 -0.30691,0.36819 -0.0917,0.21484 -0.39864,0.33761 -0.55245,0.58304 -0.21449,0.33778 -0.46003,0.61379 -0.76694,0.85936 -0.24554,0.2763 -0.61384,0.42969 -0.67522,0.82861 0,0 -0.0307,0 -0.0614,0 0.0307,0.092 -0.0921,0.12266 -0.0921,0.21484 -0.0307,-0.0306 -0.0614,0.0306 -0.0921,0.0306 -0.12277,0.12295 -0.18415,0.27616 -0.27623,0.42969 -0.0614,0.0615 -0.15346,0.12276 -0.18415,0.15349 -0.0921,0.0919 -0.18415,0.15339 -0.24553,0.24543 -0.0614,0.1228 -0.15346,0.30706 -0.0614,0.39895 0.0307,0.0615 0.15381,0.0306 0.24553,0.0306 0,-0.0306 -0.0307,-0.0306 -0.0307,-0.0612 v 0"
       style="fill:#308b7d;fill-opacity:1;fill-rule:nonzero;stroke:none;stroke-width:0.0352778"
       id="path911" />
    <path
       d="m 180.5903,145.69302 c 0.34008,-0.48603 0.84173,-0.79802 1.27141,-1.18731 0.0635,-0.0613 0.0656,-0.15918 0.004,-0.22253 -0.0596,-0.0613 -0.15769,-0.0631 -0.22084,-0.004 -0.43003,0.41811 -0.9532,0.74429 -1.26012,1.27345 -0.0381,0.0558 -0.0251,0.13434 0.0325,0.17279 0.0557,0.0383 0.13264,0.0248 0.17286,-0.0327 v 0"
       style="fill:#308b7d;fill-opacity:1;fill-rule:nonzero;stroke:none;stroke-width:0.0352778"
       id="path913" />
    <path
       d="m 179.94577,146.0115 c -0.0614,0.0615 -0.11747,0.12789 -0.18944,0.17639 -0.0536,0.0435 -0.0639,0.12016 -0.0201,0.17389 0.0406,0.0538 0.11748,0.0615 0.17075,0.0204 0.0797,-0.0586 0.14111,-0.13546 0.21519,-0.20189 0.0487,-0.0488 0.0462,-0.12527 -0.002,-0.17406 -0.0487,-0.0461 -0.12806,-0.0434 -0.17392,0.005 v 0 0"
       style="fill:#308b7d;fill-opacity:1;fill-rule:nonzero;stroke:none;stroke-width:0.0352778"
       id="path915" />
    <path
       d="m 179.46988,146.54342 c -0.40147,0.38351 -0.66746,0.87189 -0.91017,1.36564 -0.0335,0.0587 -0.013,0.13547 0.0459,0.16852 0.0589,0.0335 0.13335,0.0128 0.16616,-0.0457 0.23036,-0.47583 0.4886,-0.95137 0.87736,-1.31974 0.0459,-0.0485 0.0434,-0.12775 -0.005,-0.17378 -0.0487,-0.0461 -0.12806,-0.0437 -0.17427,0.005 v 0 0"
       style="fill:#308b7d;fill-opacity:1;fill-rule:nonzero;stroke:none;stroke-width:0.0352778"
       id="path917" />
    <path
       d="m 187.086,160.75539 c -1.06434,0.59726 -2.02565,1.17119 -3.11292,1.63121 -0.3503,0.15762 -0.68756,0.29143 -1.04845,0.41244 -0.44873,0.15377 -0.89641,0.29516 -1.35643,0.424 -0.2981,0.0864 -0.58385,0.16055 -0.89288,0.2099 -1.20051,0.22186 -2.31423,0.44704 -3.49568,0.49774 -0.50553,0.0409 -1.00718,0.0208 -1.50989,4.2e-4 -0.36794,-0.0149 -0.7246,-0.005 -1.0922,-0.0319 -0.26881,-0.0353 -0.52705,-0.0335 -0.79551,-0.0687 -0.0127,-6.7e-4 -0.013,0.0117 -0.0134,0.0237 -0.0123,-4.2e-4 -0.0247,-0.001 -0.0367,-0.001 -0.012,-0.0131 -0.0233,-0.038 -0.0356,-0.0385 -0.34219,-0.038 -0.66004,-0.0758 -1.00153,-0.13864 -0.1584,-0.031 -0.31785,-0.0373 -0.46179,-0.12954 -0.0363,-0.0136 -0.0864,0.009 -0.12241,-0.005 -0.012,-0.0131 -0.036,-0.0265 -0.0476,-0.0392 -0.12135,-0.0416 -0.24377,-0.0466 -0.36618,-0.0638 -0.14676,-0.0181 -0.30515,-0.0488 -0.45156,-0.0674 -0.0737,-0.003 -0.1464,-0.03 -0.21801,-0.0823 -0.0123,-6.7e-4 -0.0377,0.0226 -0.0617,0.01 -0.20567,-0.0818 -0.40005,-0.13892 -0.61912,-0.18454 -0.0243,-9.5e-4 -0.0603,-0.0271 -0.085,-0.0281 -0.21626,-0.085 -0.44239,-0.11867 -0.66922,-0.17543 -0.0642,-0.0158 -0.12912,-0.0342 -0.19368,-0.0561 -0.0483,-0.014 -0.12206,-0.0172 -0.16968,-0.0557 -0.024,-0.0135 -0.049,-0.002 -0.0734,-0.003 -0.47061,-0.21551 -0.94404,-0.35747 -1.42769,-0.5486 -0.0363,-0.0138 -0.0864,0.008 -0.12277,-0.005 -0.50553,-0.25371 -1.02694,-0.42238 -1.53211,-0.68834 -0.32491,-0.17279 -0.63783,-0.33305 -0.96238,-0.50588 -0.13265,-0.0667 -0.21343,-0.1929 -0.34537,-0.2716 -0.0363,-0.0138 -0.0741,0.009 -0.0998,0.0328 0.0123,0 0.0113,0.0251 0.0113,0.0251 -0.0977,-0.0163 -0.16827,-0.0932 -0.25188,-0.14538 -0.2279,-0.14429 -0.44274,-0.30057 -0.64417,-0.4808 -0.0949,-0.0773 -0.20426,-0.11892 -0.27376,-0.21982 -0.0233,-0.0255 -0.008,-0.0988 -0.006,-0.14785 0.084,0.0529 0.15558,0.10474 0.23989,0.14496 0.14429,0.0794 0.27658,0.14651 0.40852,0.22504 0.06,0.0395 0.10795,0.066 0.16827,0.0932 0.061,0.0145 0.0699,0.10086 0.11748,0.13974 0.0959,0.0533 0.16757,0.10513 0.23777,0.19403 0.024,0.0131 0.0603,0.0268 0.0843,0.0398 0.1203,0.0664 0.21484,0.15624 0.33514,0.22267 0.0356,0.026 0.0713,0.0523 0.121,0.0416 0.0501,-0.0226 0.1016,-0.0816 0.12595,-0.0685 0.16898,0.0685 0.33796,0.14884 0.49283,0.26571 0.024,0.0134 0.0617,-0.01 0.0857,0.003 0.11959,0.0784 0.22754,0.14401 0.34819,0.19805 0.0723,0.0401 0.14464,0.0677 0.21696,0.10746 0.012,4.2e-4 0.049,0.002 0.0614,0.002 0.0716,0.0518 0.15628,0.08 0.24166,0.0959 0.0363,0.0138 0.0596,0.0515 0.0963,0.0533 0.0607,0.0145 0.0674,0.0536 0.11712,0.0434 0.012,6.7e-4 0.0367,0.002 0.0487,0.002 0.072,0.0519 0.0861,-0.002 0.15734,0.0615 -0.40675,-0.2752 -0.58279,-0.28359 -0.93133,-0.57079 -0.24483,-0.1856 -0.52952,-0.30907 -0.78246,-0.49456 -0.13265,-0.0974 -0.17216,-0.22049 -0.32068,-0.3084 -0.17251,-0.12209 0.0109,-0.0208 -0.15099,-0.11038 -0.1083,-0.06 -0.34149,-0.26391 -0.43921,-0.33172 -0.15063,-0.1047 -0.56515,-0.41049 -0.67627,-0.58688 -0.0335,-0.0735 -0.34537,-0.33666 -0.38912,-0.38492 -0.0952,-0.10484 -0.22295,-0.23495 -0.2861,-0.30702 -0.14182,-0.0987 -0.14958,-0.15088 -0.2413,-0.27407 -0.0272,-0.0363 -0.17251,-0.21375 -0.19791,-0.25083 -0.13405,-0.19745 -0.34219,-0.49911 -0.53093,-0.68223 -0.18803,-0.16648 -0.31256,-0.56625 -0.44132,-0.76056 -0.061,-0.0875 -0.19932,-0.23315 -0.25577,-0.33267 -0.81774,-1.45464 -1.14511,-2.70012 -1.14511,-2.70012 -0.0815,-0.11395 -0.1009,-0.23728 -0.1577,-0.35031 0.0727,0.0276 0.0441,0.12446 0.10407,0.16386 0.0166,-0.10982 -0.0797,-0.16287 -0.0998,-0.27435 0.002,-0.0368 -0.0808,-0.31143 -0.085,-0.32304 -0.21202,-0.57436 -0.3108,-1.43757 -0.3108,-1.43757 0.008,-0.20849 -0.0572,-0.40746 -0.073,-0.61722 -0.005,-0.19664 -0.042,-1.09499 0.0176,-1.35061 0.001,-0.0367 0.0385,-0.0475 0.0878,-0.0456 0.012,5.6e-4 0.0247,-0.0111 0.0254,-0.0234 0.003,-0.0737 -0.006,-0.14756 0.009,-0.22091 0.0137,-0.0364 0.0727,-0.27943 0.0392,-0.35454 -0.01,-0.0619 -0.0314,-0.13631 -0.0169,-0.19734 0.0148,-0.0608 0.018,-0.13452 0.0328,-0.19512 0,-0.0126 -0.0109,-0.0374 -0.036,-0.0261 -0.0377,0.0232 -0.0402,0.0842 -0.0663,0.12019 -0.0152,0.0732 0.006,0.14771 -0.0335,0.21992 -0.0138,0.0361 0.0328,0.0993 0.007,0.13518 -0.0123,0.0119 -0.0381,0.0356 -0.0744,0.0216 -0.048,-0.0265 -0.009,-0.0864 -0.0318,-0.12414 -0.0109,-0.0374 0.0155,-0.0855 0.0296,-0.12157 7.1e-4,-0.0245 0.0388,-0.35468 0.054,-0.42785 0.001,-0.0369 -0.005,-0.18454 0.009,-0.22063 0.0254,-0.0237 0.0325,-0.19554 0.0469,-0.24419 0.0155,-0.0852 0.0194,-0.18341 0.0836,-0.25439 0.0131,-0.0121 -7e-4,0.0242 0.0236,0.0254 -0.0279,0.0849 -0.0504,0.34187 -0.0522,0.37881 -0.0176,0.13448 0.0709,0.37151 0.0716,0.35913 0.0148,-0.0608 0.0335,-0.21968 0.0462,-0.23153 0.002,-0.0491 -0.0201,-0.11148 0.006,-0.15956 0.0522,-0.0716 0.0914,-0.13148 0.0699,-0.20602 0.001,-0.0365 -0.0219,-0.062 -0.008,-0.0982 0.0388,-0.06 0.005,-0.12295 0.0434,-0.17061 0.0131,-0.0113 0.0617,-0.01 0.0512,-0.047 -0.0152,-0.23399 0.10371,-0.43808 0.13758,-0.67013 0.0134,-0.0239 -0.0215,-0.0746 -0.008,-0.0987 0.013,-0.024 0.0508,-0.047 0.0519,-0.0714 0.0399,-0.0721 0.0674,-0.14481 0.0582,-0.23121 7.1e-4,-0.0123 0.0381,-0.0232 0.0385,-0.0352 -0.009,-0.0741 0.018,-0.13462 0.0575,-0.20669 0.0388,-0.0476 0.0307,-0.14609 0.0699,-0.20602 0.0254,-0.0237 0.0328,-0.2074 0.0466,-0.24377 0.0145,-0.0487 0.03,-0.13409 -0.0187,-0.14828 -0.024,-0.0129 -0.0261,0.0479 -0.0395,0.0722 -0.0145,0.0485 -0.0815,0.19318 -0.0825,0.21773 -0.0427,0.1458 -0.10866,0.25368 -0.15064,0.38707 -0.002,0.0369 -0.0155,0.0729 -0.0286,0.0971 -0.0533,0.0962 -0.0815,0.19336 -0.11041,0.30262 -0.0589,0.24338 -0.11713,0.46207 -0.18839,0.70516 0,0 -0.0367,-0.002 -0.036,-0.0142 0.002,-0.0487 0.003,-0.0733 0.005,-0.12235 0.0131,-0.024 0.072,-0.26737 0.0984,-0.31545 0.0286,-0.097 -0.004,-0.20891 0.073,-0.27975 3.5e-4,-0.0122 0.0257,-0.0354 0.0384,-0.0474 0.0145,-0.0485 -0.0205,-0.0991 -0.0194,-0.12361 0.10054,-0.36449 0.26105,-0.68972 0.39864,-1.05283 0.0688,-0.18137 0.14181,-0.37938 0.24377,-0.55521 5.51815,-9.52334 15.73001,-8.33236 19.22886,-7.4677 -0.22543,0.10125 -0.77118,0.34995 -0.8696,0.34607 -0.0123,-7e-4 -3.64737,-0.59337 -6.22477,0.35066 -0.0589,0.0215 -0.11218,0.0448 -0.17462,0.0667 -0.0123,-3.5e-4 -0.037,-10e-4 -0.049,-0.002 -0.049,-0.002 -0.11183,0.0321 -0.16192,0.0547 -0.0501,0.0226 -0.0984,-0.004 -0.13547,0.007 -0.10019,0.0452 -0.21202,0.0776 -0.32314,0.0854 -0.0487,-0.002 -0.12383,0.0321 -0.13759,0.0681 -0.0169,0.11006 0.15628,0.0801 0.24236,0.0836 0.012,3.5e-4 0.0236,0.0257 0.0236,0.0257 0.16228,-0.0674 0.32526,-0.14676 0.4953,-0.10301 0.024,0.0134 -0.0395,0.0723 -0.0776,0.0949 -0.11183,0.0325 -0.22402,0.0773 -0.34643,0.06 -0.0483,-0.0141 -0.0875,0.0455 -0.12488,0.0564 -0.27376,0.0871 -0.52494,0.22437 -0.78776,0.33655 -0.0243,-7e-4 -0.0734,-0.003 -0.0984,0.008 -0.1263,0.0808 -0.25118,0.13723 -0.40005,0.16827 -0.0741,0.009 -0.11466,0.10548 -0.15522,0.19015 -0.0141,0.0483 -0.0889,0.0702 -0.15064,0.0797 -0.0127,0.012 -0.0247,0.0113 -0.0258,0.036 -0.0123,-3.5e-4 -0.0247,-0.001 -0.037,-0.001 -0.0381,0.0353 -0.0998,0.0452 -0.11465,0.10583 -7e-4,0.0123 0.0229,0.0378 0.0353,0.0385 0.14711,0.006 0.27481,-0.11183 0.42333,-0.14288 0.0741,-0.009 0.12524,-0.0564 0.19932,-0.0656 0.0871,-0.0212 0.17463,-0.0667 0.27164,-0.0381 0.012,0.0127 0.0487,0.0141 0.048,0.0388 -0.002,0.0367 -0.0286,0.0699 -0.0649,0.0833 -2.0634,0.76517 -3.37009,1.45309 -5.64127,4.06188 l -0.0272,0.19706 0.1704,-0.003 c 0,0 -2.61091,2.95395 -2.19887,6.21093 l 0.079,0.0573 -0.0268,-0.21647 c 0,0 0.012,-0.6973 0.26953,-1.45245 0.0268,-0.0786 0.0931,-0.0626 0.12558,-0.14154 0.11466,-0.27989 0.22896,-0.65387 0.42863,-0.8993 v 0 c 0,0 -0.36759,0.43861 -0.21414,1.88087 0.15346,1.44254 0.0617,0.031 0.0617,0.031 l 0.0921,-0.0919 c 0,0 -0.007,-0.5322 0.29528,-1.30295 0.75741,-1.9305 2.71639,-5.54193 6.16021,-7.38445 l -0.51859,0.49276 c -1.36454,0.78327 -3.38984,3.2228 -3.75814,3.88274 l 0.14323,0.0482 0.1023,-0.21703 0.21414,-0.0364 -0.18309,0.21371 c -0.61384,0.70584 -1.1169,2.02544 -1.1169,2.02544 -0.0131,0.0241 -0.0388,0.0476 -0.0519,0.0717 -0.0148,0.0606 -0.0296,0.12168 -0.0321,0.18285 -0.013,0.0243 -0.0504,0.0349 -0.0515,0.0596 -0.002,0.049 -0.0409,0.0966 -0.0434,0.15776 0.0116,0.0251 -0.0268,0.0604 -0.0399,0.0846 -0.042,0.12111 -0.0723,0.2672 -0.0649,0.39024 0.0106,0.0372 -0.0159,0.0855 -0.0173,0.12224 0.008,0.11109 -0.009,0.22077 0.024,0.32039 0.0226,0.05 0.0321,0.11191 0.006,0.15974 -0.2092,0.61832 -0.33267,1.23995 -0.38277,1.87675 -7e-4,0.0122 0.0229,0.0379 0.0222,0.0502 0.0159,0.22172 -0.0469,0.42827 -0.0385,0.64961 0.036,0.91471 0.18732,4.61105 1.91875,6.34255 0.0818,0.0818 0.10231,0.20063 0.20991,0.27905 0.0593,0.0511 0.0681,0.13751 0.0769,0.22394 0.0219,0.0624 0.0741,-0.009 0.0981,0.004 0.0956,0.0653 0.11466,0.20077 0.19721,0.29034 0.25929,0.26846 0.50941,0.53481 0.77858,0.79308 1.12889,1.08341 3.8167,2.83241 7.66268,2.83241 3.84634,0 8.63459,-2.60311 10.96716,-6.69508 2.33222,-4.09166 2.07433,-9.80652 -0.14499,-12.51698 -0.0282,-0.0342 -0.0483,-0.0263 -0.0713,-0.0642 -0.012,-0.0127 -0.0614,0.01 -0.0734,-0.0152 7.1e-4,-0.0123 0.002,-0.0369 0.002,-0.0613 0.002,-0.0627 0.0903,-0.0947 0.12806,-0.11783 0.35031,-0.1578 0.68615,-0.26709 1.05798,-0.35045 0.23565,-0.0518 0.45896,-0.10417 0.70591,-0.13105 0.0243,8.4e-4 0.0875,-0.0335 0.0988,-0.008 0.0476,0.0387 0.0833,0.0648 0.13053,0.1035 -3.5e-4,0.0124 -7e-4,0.0247 -0.001,0.0369 0.1083,0.0657 0.12771,0.18919 0.1972,0.29048 0.0236,0.0255 0.06,0.0391 0.0833,0.0648 0.11571,0.18877 0.24483,0.32921 0.37289,0.50641 0.0233,0.0378 0.0459,0.0879 0.0691,0.11342 0.0695,0.101 0.16263,0.23992 0.2861,0.22048 -0.0903,-0.20037 -0.20602,-0.37701 -0.33443,-0.55425 -0.0113,-0.0127 0.0145,-0.0485 0.003,-0.0612 -0.12735,-0.18933 -0.25647,-0.34216 -0.35913,-0.54282 -0.0233,-0.0377 -0.0462,-0.0633 -0.0822,-0.0893 0.0377,-0.0109 0.0381,-0.0354 0.0272,-0.0725 0.085,0.0278 0.15099,-0.08 0.23566,-0.0519 0.0847,0.0278 0.0917,0.17554 0.17674,0.19124 0.037,0.001 -0.0222,-0.0623 -0.008,-0.0986 0.0138,-0.0363 0.0625,-0.0343 0.0868,-0.021 0.0822,0.0893 0.0861,0.29834 0.2346,0.27972 0.33655,0.48041 0.56126,1.00541 0.83467,1.53254 0.0116,0.0127 0.0243,8.1e-4 0.025,-0.0114 -0.0286,-0.20991 -0.15733,-0.36259 -0.2106,-0.56127 -0.1203,-0.37335 -0.34114,-0.68944 -0.53517,-1.05368 -0.0459,-0.0755 -0.13088,-0.10347 -0.15204,-0.19029 -0.0109,-0.0374 -0.085,-0.0158 -0.0833,-0.0648 0.013,-0.024 0.0497,-0.0103 0.0628,-0.0343 3.6e-4,-0.0122 -0.0116,-0.0128 -0.0243,-0.0132 7.1e-4,-0.0121 0.001,-0.0245 0.001,-0.0245 0.0243,9.5e-4 0.0617,-0.01 0.0857,0.003 0.012,0.0128 0.0109,0.037 0.0226,0.05 0.0243,0.001 0.0635,0.0128 0.0727,0.0274 0.65405,1.04814 4.80201,6.90658 0.30127,14.96727 l 0.0603,0.11783 c 0,0 -1.10737,1.50593 -2.47827,2.87722 -1.37089,1.37057 0.10513,0.10968 0.10513,0.10968 0,0 4.48169,-3.15486 5.13009,-9.27778 0.1069,-1.00376 -0.21978,-3.17253 -0.45755,-4.3156 l 0.0519,-0.24765 c 0,0 1.75436,3.71891 -0.41981,8.95396 -0.90805,2.18627 -3.10091,4.89659 -5.19535,6.07176 v 0"
       style="fill:#293f8b;fill-opacity:1;fill-rule:nonzero;stroke:none;stroke-width:0.0352778"
       id="path919" />
    <g
       id="g1175"
       transform="matrix(0.24825859,0,0,-0.24825859,3.3434392,191.81808)"
       style="fill:#ffffff">
      <path
         d="m 108.453,176.246 c 0,-17.531 -7.258,-23.098 -20.8788,-23.098 -15.6054,0 -20.7929,7.766 -20.7929,23.926 v 44.047 h 10.2734 v -43.246 c 0,-5.898 -0.3906,-17 10.5976,-17 9.0704,0 10.6954,6.59 10.6954,16.543 v 43.703 h 10.1053 v -44.875"
         style="fill:#ffffff;fill-opacity:1;fill-rule:nonzero;stroke:none"
         id="path1177" />
      <path
         d="M 385.336,66.7813 365.238,124.488 V 66.7813 h -8.621 v 66.7817 h 15.067 l 20.101,-57.6997 v 57.6997 h 9.25 V 66.7813 h -15.699"
         style="fill:#ffffff;fill-opacity:1;fill-rule:nonzero;stroke:none"
         id="path1179" />
      <path
         d="M 150.613,154.34 130.52,212.047 V 154.34 h -8.622 v 66.781 h 15.071 l 20.097,-57.699 v 57.699 h 9.247 V 154.34 h -15.7"
         style="fill:#ffffff;fill-opacity:1;fill-rule:nonzero;stroke:none"
         id="path1181" />
      <path
         d="m 181.879,154.34 v 66.781 H 192.23 V 154.34 h -10.351"
         style="fill:#ffffff;fill-opacity:1;fill-rule:nonzero;stroke:none"
         id="path1183" />
      <path
         d="m 402.012,154.34 v 66.781 h 10.355 V 154.34 h -10.355"
         style="fill:#ffffff;fill-opacity:1;fill-rule:nonzero;stroke:none"
         id="path1185" />
      <path
         d="m 229.652,154.34 h -12.168 l -16.879,66.781 h 10.774 l 12.664,-57.336 13.137,57.336 h 10.09 L 229.652,154.34"
         style="fill:#ffffff;fill-opacity:1;fill-rule:nonzero;stroke:none"
         id="path1187" />
      <path
         d="m 255.426,154.34 v 66.781 h 33.066 v -7.98 h -22.804 v -20.364 h 21.328 v -7.714 h -21.328 v -22.735 h 23.449 v -7.988 h -33.711"
         style="fill:#ffffff;fill-opacity:1;fill-rule:nonzero;stroke:none"
         id="path1189" />
      <path
         d="M 310.93,66.7813 V 133.563 H 344 v -7.981 h -22.805 v -20.363 h 21.321 V 97.5039 H 321.195 V 74.7695 h 23.446 V 66.7813 H 310.93"
         style="fill:#ffffff;fill-opacity:1;fill-rule:nonzero;stroke:none"
         id="path1191" />
      <path
         d="m 458.871,66.7813 v 66.7817 h 33.067 v -7.981 h -22.801 v -20.363 h 21.328 V 97.5039 H 469.137 V 74.7695 h 23.445 v -7.9882 h -33.711"
         style="fill:#ffffff;fill-opacity:1;fill-rule:nonzero;stroke:none"
         id="path1193" />
      <path
         d="m 328.617,203.414 c 0,7.734 -4.09,9.902 -10.554,9.902 h -6.93 V 191.93 h 5.394 c 8.848,0 12.09,2.351 12.09,11.484 z m 0.137,-49.074 c -0.938,6.406 -0.945,16.25 -1.016,17.48 -0.242,5 -0.886,8.203 -1.937,9.629 -1.227,1.778 -4.059,2.676 -8.488,2.676 h -6.18 V 154.34 h -10.348 v 66.781 h 19.199 c 11.047,0 19.11,-2.648 19.11,-16.898 0,-8.993 -3.645,-14.383 -10.914,-16.172 3.75,-0.301 6.336,-1.602 7.75,-3.875 1.113,-1.731 2.121,-5.715 2.121,-10.696 0,-1.914 0.402,-14.949 1.387,-19.14 h -10.684"
         style="fill:#ffffff;fill-opacity:1;fill-rule:nonzero;stroke:none"
         id="path1195" />
      <path
         d="m 389.34,171.156 c 0,-11.992 -6.563,-18.008 -19.676,-18.008 -14.687,0 -19.769,5.899 -19.769,19.922 v 0.735 h 10.597 v -0.735 c 0,-7.929 2.031,-12.285 9.16,-12.285 6.114,0 9.172,3.184 9.172,9.551 0,5.684 -3.453,8.359 -6.379,10.266 -1.414,0.925 -3.289,2.097 -5.644,3.523 -9.86,6.066 -15.977,10.098 -15.977,20.93 0,11.054 6.836,17.336 19.563,17.336 12.187,0 18.281,-5.555 18.281,-16.672 v -2.403 h -10.363 v 1.661 c 0,6.468 -2.785,9.695 -8.387,9.695 -5.07,0 -8.574,-2.918 -8.574,-8.875 0,-6.633 4.715,-8.789 9.148,-11.652 1.539,-0.977 3.113,-1.993 4.711,-3.036 10.457,-6.679 14.137,-9.726 14.137,-19.953"
         style="fill:#ffffff;fill-opacity:1;fill-rule:nonzero;stroke:none"
         id="path1197" />
      <path
         d="M 446.695,213.141 V 154.34 h -10.347 v 58.801 h -15.414 v 7.98 h 41.179 v -7.98 h -15.418"
         style="fill:#ffffff;fill-opacity:1;fill-rule:nonzero;stroke:none"
         id="path1199" />
      <path
         d="M 207.094,125.582 V 66.7813 h -10.352 v 58.8007 h -15.414 v 7.981 h 41.184 v -7.981 h -15.418"
         style="fill:#ffffff;fill-opacity:1;fill-rule:nonzero;stroke:none"
         id="path1201" />
      <path
         d="M 435.016,125.582 V 66.7813 h -10.344 v 58.8007 h -15.418 v 7.981 h 41.18 v -7.981 h -15.418"
         style="fill:#ffffff;fill-opacity:1;fill-rule:nonzero;stroke:none"
         id="path1203" />
      <path
         d="m 287.816,66.7813 h -12.078 l -10.425,56.0347 -11.54,-56.0347 h -12.078 l -14.199,66.7817 h 10.938 l 9.882,-55.8442 11.45,55.8442 h 12.086 l 10.527,-55.8442 10.617,55.8442 h 9.676 L 287.816,66.7813"
         style="fill:#ffffff;fill-opacity:1;fill-rule:nonzero;stroke:none"
         id="path1205" />
      <path
         d="m 512.23,70.7383 c 0,-2.9688 -2.41,-5.3906 -5.394,-5.3906 -2.984,0 -5.387,2.4218 -5.387,5.3906 0,2.9883 2.403,5.418 5.387,5.418 2.984,0 5.394,-2.4297 5.394,-5.418"
         style="fill:#ffffff;fill-opacity:1;fill-rule:nonzero;stroke:none"
         id="path1207" />
      <path
         d="M 492.031,179.828 V 154.34 h -10.347 v 25.488 l -17.551,41.293 h 11.457 l 12.004,-31.867 12.289,31.867 h 10.621 l -18.473,-41.293"
         style="fill:#ffffff;fill-opacity:1;fill-rule:nonzero;stroke:none"
         id="path1209" />
      <path
         d="m 98.832,100.777 c 0,8.055 -0.2734,13.633 -0.8281,16.719 -1.2305,6.406 -4.5273,9.602 -9.8828,9.602 -5.2969,0 -8.6523,-3.387 -10.0703,-10.16 -0.25,-1.231 -0.4336,-3.204 -0.5547,-5.918 -0.1289,-2.704 -0.1875,-6.211 -0.1875,-10.528 0,-4.0037 0.0508,-7.3631 0.1445,-10.0662 0.0899,-2.707 0.2578,-4.8047 0.5,-6.2813 0.5586,-3.6328 1.543,-6.3086 2.961,-8.0351 1.539,-1.9063 3.9375,-2.8633 7.207,-2.8633 5.4766,0 8.8086,3.4492 9.9766,10.3437 0.2421,1.4141 0.4296,3.543 0.5507,6.375 0.125,2.8321 0.1836,6.4375 0.1836,10.8122 z m 10.715,-1.2028 c 0,-12.0703 -1.047,-20.2344 -3.137,-24.4804 -3.015,-6.3399 -9.2069,-9.5118 -18.5662,-9.5118 -8.9336,0 -14.9102,3.0469 -17.9258,9.1407 -1.2305,2.5859 -2.0899,5.9453 -2.5782,10.0664 -0.371,3.1445 -0.5585,8.039 -0.5585,14.6875 0,8.0664 0.2734,13.9184 0.832,17.5504 0.7344,4.993 2.3047,8.934 4.707,11.825 3.4531,4.003 8.7188,6.007 15.8008,6.007 7.2031,0 12.4689,-1.816 15.7889,-5.449 2.469,-2.648 4.07,-6.594 4.805,-11.828 0.558,-3.633 0.832,-9.637 0.832,-18.0078"
         style="fill:#ffffff;fill-opacity:1;fill-rule:nonzero;stroke:none"
         id="path1211" />
      <path
         d="m 132.887,125.613 v -20.511 h 19.769 V 97.3477 H 132.887 V 66.7813 h -10.254 v 66.7817 h 31.133 v -7.95 h -20.879"
         style="fill:#ffffff;fill-opacity:1;fill-rule:nonzero;stroke:none"
         id="path1213" />
    </g>
  </g>
</svg>
